/* XPM */
static char *collectable[] = {
/* columns rows colors chars-per-pixel */
"96 96 13 1 ",
"  c #3F3851",
". c #6E5967",
"X c #926475",
"o c #AD707B",
"O c #4F6DC0",
"+ c #B77F83",
"@ c #5987C6",
"# c #6198CC",
"$ c #68B8D3",
"% c #C39490",
"& c #D1B1A5",
"* c #DCCABE",
"= c #90E3E4",
/* pixels */
"................................................................................................",
"oo%%%%%%&&&&&&&%%%&&%%%%%%%%%%%%%%%%%%%%%%%%%oo.oo%%%%%%&&&&&&&%%%&&%%%%%%%%%%%%%%%%%%%%%%%%%oo.",
"oo%%%%%%&&&&&&&%%%&&%%%%%%%%%%%%%%%%%%%%%%%%%oo.oo%%%%%%&&&&&&&%%%&&%%%%%%%%%%%%%%%%%%%%%%%%%oo.",
"%%%%%%%%%%%%%%%%%%%%%%%%%%%%%%%%%%%%%%%%%%%%%%%.%%%%%%%%%%%%%%%%%%%%%%%%%%%%%%%%%%%%%%%%%%%%%%%.",
"%%%%%%%%%%%%%%%%%%%%%%%%%%%%%%oo%oooooooo%%%....%%%%%%%%%%%%%%%%%%%%%%%%%%%%%%oo%oooooooo%%%....",
"%%%%%%%%%%%%%%%%%%%%%%%%%%%%%%oo%oooooooo%%%....%%%%%%%%%%%%%%%%%%%%%%%%%%%%%%oo%oooooooo%%%....",
"%%%%%%%%%%%%%%%%%%%%%%%%%%%%%%%%&%%&&&&%%%%%%++.%%%%%%%%%%%%%%%%%%%%%%%%%%%%%%%%&%%&&&&%%%%%%++.",
"%%%%%%%%%%%%%%%%%%%%%%%%%%%%%%%%%%%%%%%%%%%%%%%.%%%%%%%%%%%%%%%%%%%%%%%%%%%%%%%%%%%%%%%%%%%%%%%.",
"%%%%%%%%%%%%%%%%%%%%%%%%%%%%%%%%%%%%%%%%%%%%%%%.%%%%%%%%%%%%%%%%%%%%%%%%%%%%%%%%%%%%%%%%%%%%%%%.",
"%%%%%%%%%%%%%%%%%%%%%%%%%%%%%%%%%%%%%%%%%%%%%%%.%%%%%%%%%%%%%%%%%%%%%%%%%%%%%%%%%%%%%%%%%%%%%%%.",
"oo%%%%%%%%%%%%%%%%%%%%%%%%%%%%%%%%%%%%%%%%%%%oo.oo%%%%%%%%%%%%%%%%%%%%%%%%%%%%%%%%%%%%%%%%%%%oo.",
"oo%%%%%%%%%%%%%%%%%%%%%%%%%%%%%%%%%%%%%%%%%%%oo.oo%%%%%%%%%%%%%%%%%%%%%%%%%%%%%%%%%%%%%%%%%%%oo.",
"................................................................................................",
"&&&&&%%%%%%%%%%%%%%%%oo.oo%%%%&&%&&&&&&&&%%%%%%%&&&&&%%%%%%%%%%%%%%%%oo.oo%%%%&&%&&&&&&&&%%%%%%%",
"&&&&&%%%%%%%%%%%%%%%%oo.oo%%%%&&%&&&&&&&&%%%%%%%&&&&&%%%%%%%%%%%%%%%%oo.oo%%%%&&%&&&&&&&&%%%%%%%",
"%%%%%%%%%%%%%%%%%%%%%%%.%%%%%%%%%%%%%%%%%%%%%%%%%%%%%%%%%%%%%%%%%%%%%%%.%%%%%%%%%%%%%%%%%%%%%%%%",
"%%%%%%%%%%%ooo%oo%%%....%%%%%%%%%%%%%%%%%%%%%%%%%%%%%%%%%%%ooo%oo%%%....%%%%%%%%%%%%%%%%%%%%%%%%",
"%%%%%%%%%%%ooo%oo%%%....%%%%%%%%%%%%%%%%%%%%%%%%%%%%%%%%%%%ooo%oo%%%....%%%%%%%%%%%%%%%%%%%%%%%%",
"%%%%%%%%%&&%&&&%%%%%%++.%%%%%%%%%%%%%%%%%%%%%%%%%%%%%%%%%&&%&&&%%%%%%++.%%%%%%%%%%%%%%%%%%%%%%%%",
"%%%%%%%%%%%%%%%%%%%%%%%.%%%%%%%%%%%%%%%%%%%%%%%%%%%%%%%%%%%%%%%%%%%%%%%.%%%%%%%%%%%%%%%%%%%%%%%%",
"%%%%%%%%%%%%%%%%%%%%%%%.%%%%%%%%%%%%%%%%%%%%%%%%%%%%%%%%%%%%%%%%%%%%%%%.%%%%%%%%%%%%%%%%%%%%%%%%",
"%%%%%%%%%%%%%%%%%%%%%%%.%%%%%%%%%%%%%%%%%%%%%%%%%%%%%%%%%%%%%%%%%%%%%%%.%%%%%%%%%%%%%%%%%%%%%%%%",
"%%%%%%%%%%%%%%%%%%%%%oo.oo%%%%%%%%%%%%%%%%%%%%%%%%%%%%%%%%%%%%%%%%%%%oo.oo%%%%%%%%%%%%%%%%%%%%%%",
"%%%%%%%%%%%%%%%%%%%%%oo.oo%%%%%%%%%%%%%%%%%%%%%%%%%%%%%%%%%%%%%%%%%%%oo.oo%%%%%%%%%%%%%%%%%%%%%%",
"................................................................................................",
"oo%%%%&&%&&&*****&%%&&&%%%%%%%%%%%%%%%%%%%%%%oo.oo%%%%&&%&&&*****&%%&&&%%%%%%%%%%%%%%%%%%%%%%oo.",
"oo%%%%&&%&&&*****&%%&&&%%%%%%%%%%%%%%%%%%%%%%oo.oo%%%%&&%&&&*****&%%&&&%%%%%%%%%%%%%%%%%%%%%%oo.",
"%%%%%%%%%%%%%%%%%%%%%%%%%%%%%%%%%%%%%%%%%%%%%%%.%%%%%%%%%%%%%%%%%%%%%%%%%%%%%%%%%%%%%%%%%%%%%%%.",
"%%%%%%%%%%%%%%%%%%%%%%%%%%%%%%%%%%%%%%%%%%%%%%%.%%%%%%%%%%%%%%%%%%%%%%%%%%%%%%%%%%%%%%%%%%%%%%%.",
"%%%%%%%%%%%%%%%%%%%%%%%%%%%%%%%%%%%%%%%%%%%%%%%.%%%%%%%%%%%%%%%%%%%%%%%%%%%%%%%%%%%%%%%%%%%%%%%.",
"%%%%%%%%%%%%%%%%%%%%%%%%%%%%%%%%%%%%%%%%%%%%%++.%%%%%%%%%%%%%%%%%%%%%%%%%%%%%%%%%%%%%%%%%%%%%++.",
"%%%%%%%%%%%%%%%%%%%%%%%%%%%%%%%%%ooo%%o%%.......%%%%%%%%%%%%%%%%%%%%%%%%%%%%%%%%%ooo%%o%%.......",
"%%%%%%%%%%%%%%%%%%%%%%%%%%%%%%%%%ooo%%o%%.......%%%%%%%%%%%%%%%%%%%%%%%%%%%%%%%%%ooo%%o%%.......",
"%%%%%%%%%%%%%%%%%%%%%%%%%%%%%%%%%%%%&&%&&&%%%%%.%%%%%%%%%%%%%%%%%%%%%%%%%%%%%%%%%%%%&&%&&&%%%%%.",
"oo%%%%%%%%%%%%%%%%%%%%%%%%%%%%%%%%%%%%%%%%%%%oo.oo%%%%%%%%%%%%%%%%%%%%%%%%%%%%%%%%%%%%%%%%%%%oo.",
"oo%%%%%%%%%%%%%%%%%%%%%%%%%%%%%%%%%%%%%%%%%%%oo.oo%%%%%%%%%%%%%%%%%%%%%%%%%%%%%%%%%%%%%%%%%%%oo.",
"................................................................................................",
"%%%%%%%%%%%%%%%%%%%%%oo.oo%%%%&&%&&&&&****&&&%%%%%%%%%%%%%%%%%%%%%%%%oo.oo%%%%&&%&&&&&****&&&%%%",
"%%%%%%%%%%%%%%%%%%%%%oo.oo%%%%&&%&&&&&****              %%%%%%%%%%%%%oo.oo%%%%&&%&&&&&****&&&%%%",
"%%%%%%%%%%%%%%%%%%%%%%%.%%%%%%%%%%%%%%%%%   @@===$$$==== %%%%%%%%%%%%%%.%%%%%%%%%%%%%%%%%%%%%%%%",
"%%%%%%ooooo%%%o%%%......%%%%%%%%%++oooooo   @@===$$$==== ooooo+%%%%%%%%.%%%%%%%%%%%%%%%%%%%%%%%%",
"%%%%%%ooooo%%%o%%%......%%%%%%%%%++oooo   @@===$$$$$$$===  ooo+%%%%%%%%.%%%%%%%%%%%%%%%%%%%%%%%%",
"%%%%%%%%&%%%%%&&&%&&%++.%%%%%%%%+oooooo   OO===#######$$$  oooo++%%%%%%.%%%%%%%%%%%%%%%%%%%%%%%%",
"%%%%%%%%%%%%%%%%%%%%%%%.%%%%%%%%ooooooo   OO===#######$$$  oooooo%%%%%%.%%%%%%%%%%%%%%%%%%%%%%%%",
"%%%%%%%%%%%%%%%%%%%%%%%.%%%%%%%%ooooooo   OO===#######$$$  oooooo%%%%%%.%%%%%%%%%%%%%%%%%%%%%%%%",
"%%%%%%%%%%%%%%%%%%%%%%%.%%%%%%%%ooooooooo   OO=#####$$$$ oooooooo%%%%%%.%%%%%%%%%%%%%%%%%%%%%%%%",
"%%%%%%%%%%%%%%%%%%%%%oo.oo%%%%++oooooooooX    =#####$$  ooooooooo+%%%oo.oo%%%%%%%%%%%%%%%%%%%%%%",
"%%%%%%%%%%%%%%%%%%%%%oo.oo%%%%++oooooooooX    =#####$$  ooooooooo+%%%oo.oo%%%%%%%%%%%%%%%%%%%%%%",
"............................................   ==##$  ..........................................",
"oo%%%%%%&&&&&&&%%%&&%%%%%%%%%%++ooooooX.......   == .....XXoooooo+%%%%%%%%%%%%%%%%%%%%%%%%%%%oo.",
"oo%%%%%%&&&&&&&%%%&&%%%%%%%%%%++ooooooX.......   == .....XXoooooo+%%%%%%%%%%%%%%%%%%%%%%%%%%%oo.",
"%%%%%%%%%%%%%%%%%%%%%%%%%%%%%%%%ooooooo........    ......oooooooo%%%%%%%%%%%%%%%%%%%%%%%%%%%%%%.",
"%%%%%%%%%%%%%%%%%%%%%%%%%%%%%%%%oooooooXX...............Xoooooooo%%%%%%%%%%%%%oo%oooooooo%%%....",
"%%%%%%%%%%%%%%%%%%%%%%%%%%%%%%%%oooooooXX...............Xoooooooo%%%%%%%%%%%%%oo%oooooooo%%%....",
"%%%%%%%%%%%%%%%%%%%%%%%%%%%%%%%%oooooooooooooXX.XXooooooooooooooo%%%%%%%%%%%%%%%&%%&&&&%%%%%%++.",
"%%%%%%%%%%%%%%%%%%%%%%%%%%%%%%%%ooooooooooooooo.ooooooooooooooooo%%%%%%%%%%%%%%%%%%%%%%%%%%%%%%.",
"%%%%%%%%%%%%%%%%%%%%%%%%%%%%%%%%ooooooooooooooo.ooooooooooooooooo%%%%%%%%%%%%%%%%%%%%%%%%%%%%%%.",
"%%%%%%%%%%%%%%%%%%%%%%%%%%%%%%%%ooooooooooooooo.ooooooooooooooooo%%%%%%%%%%%%%%%%%%%%%%%%%%%%%%.",
"oo%%%%%%%%%%%%%%%%%%%%%%%%%%%%++oooooooooooooXX.XXooooooooooooooo+%%%%%%%%%%%%%%%%%%%%%%%%%%%oo.",
"oo%%%%%%%%%%%%%%%%%%%%%%%%%%%%++oooooooooooooXX.XXooooooooooooooo+%%%%%%%%%%%%%%%%%%%%%%%%%%%oo.",
"................................................................................................",
"&&&&&%%%%%%%%%%%%%%%%oo.oo%%%%%%+oooooooooooooooooooooooooooooo++%%%%oo.oo%%%%&&%&&&&&&&&%%%%%%%",
"&&&&&%%%%%%%%%%%%%%%%oo.oo%%%%%%+oooooooooooooooooooooooooooooo++%%%%oo.oo%%%%&&%&&&&&&&&%%%%%%%",
"%%%%%%%%%%%%%%%%%%%%%%%.%%%%%%%%%++ooooooooooooooooooooooooooo+%%%%%%%%.%%%%%%%%%%%%%%%%%%%%%%%%",
"%%%%%%%%%%%ooo%oo%%%....%%%%%%%%%%%%%%%%%%%%%%%%%%%%%%%%%%%%%%%%%%%%%%%.%%%%%%%%%%%%%%%%%%%%%%%%",
"%%%%%%%%%%%ooo%oo%%%....%%%%%%%%%%%%%%%%%%%%%%%%%%%%%%%%%%%%%%%%%%%%%%%.%%%%%%%%%%%%%%%%%%%%%%%%",
"%%%%%%%%%&&%&&&%%%%%%++.%%%%%%%%%%%%%%%%%%%%%%%%%%%%%%%%%%%ooo%oo%......%%%%%%%%%%%%%%%%%%%%%%%%",
"%%%%%%%%%%%%%%%%%%%%%%%.%%%%%%%%%%%%%%%%%%%%%%%%%%%%%%%%%&&%&&&%%%%%%++.%%%%%%%%%%%%%%%%%%%%%%%%",
"%%%%%%%%%%%%%%%%%%%%%%%.%%%%%%%%%%%%%%%%%%%%%%%%%%%%%%%%%&&%&&&%%%%%%++.%%%%%%%%%%%%%%%%%%%%%%%%",
"%%%%%%%%%%%%%%%%%%%%%%%.%%%%%%%%%%%%%%%%%%%%%%%%%%%%%%%%%%%%%%%%%%%%%%%.%%%%%%%%%%%%%%%%%%%%%%%%",
"%%%%%%%%%%%%%%%%%%%%%oo.oo%%%%%%%%%%%%%%%%%%%%%%%%%%%%%%%%%%%%%%%%%%%oo.oo%%%%%%%%%%%%%%%%%%%%%%",
"%%%%%%%%%%%%%%%%%%%%%oo.oo%%%%%%%%%%%%%%%%%%%%%%%%%%%%%%%%%%%%%%%%%%%oo.oo%%%%%%%%%%%%%%%%%%%%%%",
"................................................................................................",
"oo%%%%&&%&&&*****&%%&&&%%%%%%%%%%%%%%%%%%%%%%oo.oo%%%%&&%&&&*****&%%&&&%%%%%%%%%%%%%%%%%%%%%%oo.",
"oo%%%%&&%&&&*****&%%&&&%%%%%%%%%%%%%%%%%%%%%%oo.oo%%%%&&%&&&*****&%%&&&%%%%%%%%%%%%%%%%%%%%%%oo.",
"%%%%%%%%%%%%%%%%%%%%%%%%%%%%%%%%%%%%%%%%%%%%%%%.%%%%%%%%%%%%%%%%%%%%%%%%%%%%%%%%%%%%%%%%%%%%%%%.",
"%%%%%%%%%%%%%%%%%%%%%%%%%%%%%%%%%%%%%%%%%%%%%%%.%%%%%%%%%%%%%%%%%%%%%%%%%%%%%%%%%%%%%%%%%%%%%%%.",
"%%%%%%%%%%%%%%%%%%%%%%%%%%%%%%%%%%%%%%%%%%%%%%%.%%%%%%%%%%%%%%%%%%%%%%%%%%%%%%%%%%%%%%%%%%%%%%%.",
"%%%%%%%%%%%%%%%%%%%%%%%%%%%%%%%%%%%%%%%%%%%%%++.%%%%%%%%%%%%%%%%%%%%%%%%%%%%%%%%%%%%%%%%%%%%%++.",
"%%%%%%%%%%%%%%%%%%%%%%%%%%%%%%%%%ooo%%o%%.......%%%%%%%%%%%%%%%%%%%%%%%%%%%%%%%%%ooo%%o%%.......",
"%%%%%%%%%%%%%%%%%%%%%%%%%%%%%%%%%ooo%%o%%.......%%%%%%%%%%%%%%%%%%%%%%%%%%%%%%%%%ooo%%o%%.......",
"%%%%%%%%%%%%%%%%%%%%%%%%%%%%%%%%%%%%&&%&&&%%%%%.%%%%%%%%%%%%%%%%%%%%%%%%%%%%%%%%%%%%&&%&&&%%%%%.",
"oo%%%%%%%%%%%%%%%%%%%%%%%%%%%%%%%%%%%%%%%%%%%oo.oo%%%%%%%%%%%%%%%%%%%%%%%%%%%%%%%%%%%%%%%%%%%oo.",
"oo%%%%%%%%%%%%%%%%%%%%%%%%%%%%%%%%%%%%%%%%%%%oo.oo%%%%%%%%%%%%%%%%%%%%%%%%%%%%%%%%%%%%%%%%%%%oo.",
"................................................................................................",
"%%%%%%%%%%%%%%%%%%%%%oo.oo%%%%&&%&&&&&****&&&%%%%%%%%%%%%%%%%%%%%%%%%oo.oo%%%%&&%&&&&&****&&&%%%",
"%%%%%%%%%%%%%%%%%%%%%oo.oo%%%%&&%&&&&&****&&&%%%%%%%%%%%%%%%%%%%%%%%%oo.oo%%%%&&%&&&&&****&&&%%%",
"%%%%%%%%%%%%%%%%%%%%%%%.%%%%%%%%%%%%%%%%%%%%%%%%%%%%%%%%%%%%%%%%%%%%%%%.%%%%%%%%%%%%%%%%%%%%%%%%",
"%%%%%%ooooo%%%o%%%......%%%%%%%%%%%%%%%%%%%%%%%%%%%%%%ooooo%%%o%%%......%%%%%%%%%%%%%%%%%%%%%%%%",
"%%%%%%ooooo%%%o%%%......%%%%%%%%%%%%%%%%%%%%%%%%%%%%%%ooooo%%%o%%%......%%%%%%%%%%%%%%%%%%%%%%%%",
"%%%%%%%%&%%%%%&&&%&&%++.%%%%%%%%%%%%%%%%%%%%%%%%%%%%%%%%&%%%%%&&&%&&%++.%%%%%%%%%%%%%%%%%%%%%%%%",
"%%%%%%%%%%%%%%%%%%%%%%%.%%%%%%%%%%%%%%%%%%%%%%%%%%%%%%%%%%%%%%%%%%%%%%%.%%%%%%%%%%%%%%%%%%%%%%%%",
"%%%%%%%%%%%%%%%%%%%%%%%.%%%%%%%%%%%%%%%%%%%%%%%%%%%%%%%%%%%%%%%%%%%%%%%.%%%%%%%%%%%%%%%%%%%%%%%%",
"%%%%%%%%%%%%%%%%%%%%%%%.%%%%%%%%%%%%%%%%%%%%%%%%%%%%%%%%%%%%%%%%%%%%%%%.%%%%%%%%%%%%%%%%%%%%%%%%",
"%%%%%%%%%%%%%%%%%%%%%oo.oo%%%%%%%%%%%%%%%%%%%%%%%%%%%%%%%%%%%%%%%%%%%oo.oo%%%%%%%%%%%%%%%%%%%%%%",
"%%%%%%%%%%%%%%%%%%%%%oo.oo%%%%%%%%%%%%%%%%%%%%%%%%%%%%%%%%%%%%%%%%%%%oo.oo%%%%%%%%%%%%%%%%%%%%%%"
};
