/* XPM */
static char *_c1a1489d75e4ef6fb56e7c44cfc63b65NXk1t9NTlLnyEHv[] = {
/* columns rows colors chars-per-pixel */
"32 32 7 1 ",
"  c #3F3851",
". c #4F6DC0",
"X c #5987C6",
"o c #6198CC",
"O c #68B8D3",
"+ c #90E3E4",
"@ c white",
/* pixels */
"@@@@@@@@@@@@@@@@@@@@@@@@@@@@@@@@",
"@@@@@@@@@@@@@@@@@@@@@@@@@@@@@@@@",
"@@@@@@@@@@@@@@@@@@@@@@@@@@@@@@@@",
"@@@@@@@@@@@@@@@@@@@@@@@@@@@@@@@@",
"@@@@@@@@@@@@@@@@@@@@@@@@@@@@@@@@",
"@@@@@@@@@@@@@@@@@@@@@@@@@@@@@@@@",
"@@@@@@@@@@@@@@@@@@@@@@@@@@@@@@@@",
"@@@@@@@@@@@@@@@@@@@@@@@@@@@@@@@@",
"@@@@@@@@@@@@@@@@@@@@@@@@@@@@@@@@",
"@@@@@@@@@@@@@@@@@@@@@@@@@@@@@@@@",
"@@@@@@@@@@@@@@@@@@@@@@@@@@@@@@@@",
"@@@@@@@@@@@@        @@@@@@@@@@@@",
"@@@@@@@@@@@  XoOOO++ @@@@@@@@@@@",
"@@@@@@@@@@  XoOOOOO++ @@@@@@@@@@",
"@@@@@@@@@@  ..oooooOO @@@@@@@@@@",
"@@@@@@@@@@  ..XooooOO @@@@@@@@@@",
"@@@@@@@@@@@  ..oooOO @@@@@@@@@@@",
"@@@@@@@@@@@@  .XooO @@@@@@@@@@@@",
"@@@@@@@@@@@@@  .XO @@@@@@@@@@@@@",
"@@@@@@@@@@@@@@  . @@@@@@@@@@@@@@",
"@@@@@@@@@@@@@@@  @@@@@@@@@@@@@@@",
"@@@@@@@@@@@@@@@@@@@@@@@@@@@@@@@@",
"@@@@@@@@@@@@@@@@@@@@@@@@@@@@@@@@",
"@@@@@@@@@@@@@@@@@@@@@@@@@@@@@@@@",
"@@@@@@@@@@@@@@@@@@@@@@@@@@@@@@@@",
"@@@@@@@@@@@@@@@@@@@@@@@@@@@@@@@@",
"@@@@@@@@@@@@@@@@@@@@@@@@@@@@@@@@",
"@@@@@@@@@@@@@@@@@@@@@@@@@@@@@@@@",
"@@@@@@@@@@@@@@@@@@@@@@@@@@@@@@@@",
"@@@@@@@@@@@@@@@@@@@@@@@@@@@@@@@@",
"@@@@@@@@@@@@@@@@@@@@@@@@@@@@@@@@",
"@@@@@@@@@@@@@@@@@@@@@@@@@@@@@@@@"
};
