/* XPM */
static char *_57efecc1c9c47e880ffd443e40cb36dEMRchJXgccqPqDpP[] = {
/* columns rows colors chars-per-pixel */
"32 32 243 2 ",
"   c #6E5967",
".  c #6F5967",
"X  c #6F5968",
"o  c #6E5A68",
"O  c #6F5A68",
"+  c #6C5C6A",
"@  c #6B5F6D",
"#  c #705968",
"$  c #705A68",
"%  c #715A68",
"&  c #725A69",
"*  c #735B69",
"=  c #755B6A",
"-  c #735C69",
";  c #755C69",
":  c #755D6A",
">  c #765C6A",
",  c #775D6A",
"<  c #765E6A",
"1  c #775E6A",
"2  c #785D6A",
"3  c #795D6B",
"4  c #7A5D6B",
"5  c #7B5D6B",
"6  c #795E6B",
"7  c #7D5F6C",
"8  c #79616C",
"9  c #7B606C",
"0  c #7B616C",
"q  c #7D616C",
"w  c #7E616D",
"e  c #7C626D",
"r  c #7D636D",
"t  c #7C636E",
"y  c #7E646F",
"u  c #7E656F",
"i  c #7F666F",
"p  c #6A6170",
"a  c #6A6271",
"s  c #6F6472",
"d  c #6F6775",
"f  c #736875",
"g  c #746C79",
"h  c #70717F",
"j  c #805F6D",
"k  c #83616E",
"l  c #84616E",
"z  c #84616F",
"x  c #86616F",
"c  c #85626E",
"v  c #87626F",
"b  c #80666F",
"n  c #88646F",
"m  c #876171",
"M  c #826771",
"N  c #856770",
"B  c #896270",
"V  c #8A6370",
"C  c #8C6371",
"Z  c #8E6373",
"A  c #8A6470",
"S  c #896770",
"D  c #8A6770",
"F  c #8D6471",
"G  c #8D6571",
"H  c #8D6670",
"J  c #8F6472",
"K  c #8C6672",
"L  c #866871",
"P  c #876A73",
"I  c #8C6B73",
"U  c #8B6D75",
"Y  c #886E74",
"T  c #8D6D74",
"R  c #8E6D74",
"E  c #8E6F76",
"W  c #906572",
"Q  c #926673",
"!  c #926773",
"~  c #946773",
"^  c #916574",
"/  c #936575",
"(  c #936674",
")  c #976E75",
"_  c #9A6975",
"`  c #996A75",
"'  c #9B6877",
"]  c #9B6A76",
"[  c #9C6B76",
"{  c #9E6A77",
"}  c #9F6B77",
"|  c #9B6C74",
" . c #9F6A78",
".. c #8E7176",
"X. c #8F7077",
"o. c #8F7277",
"O. c #8F7378",
"+. c #8F7478",
"@. c #8F7579",
"#. c #8F777A",
"$. c #8F7A7F",
"%. c #907077",
"&. c #957178",
"*. c #947379",
"=. c #90777C",
"-. c #9F717A",
";. c #99747A",
":. c #9B767B",
">. c #99777C",
",. c #9D7A7E",
"<. c #A16E76",
"1. c #A26E76",
"2. c #A26B79",
"3. c #A56D78",
"4. c #A46C79",
"5. c #A96F7A",
"6. c #AA6F7A",
"7. c #AB6F7A",
"8. c #A47379",
"9. c #A4737C",
"0. c #A7777D",
"q. c #A9707A",
"w. c #A9717B",
"e. c #AC707B",
"r. c #AD707B",
"t. c #AF767E",
"y. c #A0787B",
"u. c #A57A7F",
"i. c #A97A7C",
"p. c #AD7F7F",
"a. c #B57B7F",
"s. c #BF7A7F",
"d. c #C56F7B",
"f. c #5E7888",
"g. c #5E798A",
"h. c #617181",
"j. c #667282",
"k. c #697786",
"l. c #6A7786",
"z. c #687F8E",
"x. c #717381",
"c. c #757783",
"v. c #767A86",
"b. c #717D8B",
"n. c #737F8D",
"m. c #8F7B80",
"M. c #AD7C80",
"N. c #B47B81",
"B. c #B57D83",
"V. c #B57E83",
"C. c #B67E82",
"Z. c #688190",
"A. c #7B8994",
"S. c #7F8E98",
"D. c #7A939E",
"F. c #7C959F",
"G. c #808F99",
"H. c #A88082",
"J. c #AC8080",
"K. c #AE8281",
"L. c #AC8182",
"P. c #AA8284",
"I. c #AA8384",
"U. c #AB8784",
"Y. c #AF8686",
"T. c #AC8985",
"R. c #B08787",
"E. c #BB8483",
"W. c #BA8784",
"Q. c #B98487",
"!. c #BA8587",
"~. c #BC8B87",
"^. c #BB8688",
"/. c #BC8889",
"(. c #BD8A8A",
"). c #BA8E8B",
"_. c #BE8C8B",
"`. c #BE8D8C",
"'. c #BC8F8C",
"]. c #BC8F8D",
"[. c #B5928B",
"{. c #BE918E",
"}. c #8099A3",
"|. c #819AA4",
" X c #859EA7",
".X c #859FA7",
"XX c #C08D8B",
"oX c #C08F8D",
"OX c #DA8687",
"+X c #C1918E",
"@X c #C0928E",
"#X c #C1928F",
"$X c #C2928F",
"%X c #C2938F",
"&X c #C9918B",
"*X c #C39490",
"=X c #C39D92",
"-X c #DC9B91",
";X c #E08888",
":X c #E6948F",
">X c #E79590",
",X c #E79690",
"<X c #E99C94",
"1X c #EA9E95",
"2X c #EB9F96",
"3X c #CAA195",
"4X c #DEA195",
"5X c #E9A396",
"6X c #EBA297",
"7X c #EBA99A",
"8X c #EEA99B",
"9X c #F0AD9D",
"0X c #F0AE9D",
"qX c #E7BAA4",
"wX c #E8BBA5",
"eX c #F2B4A1",
"rX c #F3B6A2",
"tX c #F5BAA4",
"yX c #F6BCA6",
"uX c #F7C0A8",
"iX c #F7C7AC",
"pX c #F8C2A9",
"aX c #F8C4AA",
"sX c #F9C4AB",
"dX c #F9C5AB",
"fX c #FAC7AC",
"gX c #FAC8AD",
"hX c #FBC9AE",
"jX c #FBCAAE",
"kX c #FBCBAF",
"lX c #FBCCB0",
"zX c #FBCDB1",
"xX c #FBCFB3",
"cX c #F5CFB8",
"vX c #FBD2B6",
"bX c #F6D4BC",
"nX c #FBD4B8",
"mX c #FBD8BC",
"MX c #FADBBF",
"NX c #FADEC2",
"BX c #FAE0C4",
"VX c #FAE4C8",
"CX c #FAE7CB",
/* pixels */
"            i I 0 O.+.$.+.m.o.: R +.+.+.m.m.O.0 I i             ",
"r.*X*X{.P &XqXuXU.jXjXvXxXnXfXo.pXjXxXxXnXnXjXU.uXqX&XP {.*Xr.  ",
"*X*X).R cXVXjXdXT.jXjXjXjXjXjXo.dXjXjXjXjXjXjXT.dXjXVXcXR ).*X  ",
"*X'.J.bXxXjX8X:X8.1X1X1X1X1X1XD >X1X1X1X1X1X1X8.:X8XjXxXbXy.    ",
"*XR.3XjXfX6XOXd.* : : : : : *   +   * : : : : * d.OX6XfXjX3X0.  ",
"*Xb dXjX0X;Xc   ^ r.r.r.r.r.^   h.  3.r.r.r.r.^   c ;X0XjXdXb   ",
"U 0XjXfX>X  X * * * * * * * *   h.                    >XfXjX0X  ",
"k jXjXdXs.  ^ r.C.Q.Q.Q.Q.a.Q   k.  Q ;.,.,.,.,.) V   s.dXjXjX  ",
"  7XiX6X1.* 6.6.#X#X#X#X#X#X_   b.  t.#X#X#X#X#X#X6.* 1.6XiX7X  ",
"=.J.[.p.n     F >.>.>.>.>.>.&.: k.c >.>.>.>.>.>.F     n p.[.J.U ",
"U jXjXdX1.f.z.X *X*X*X*X*X*X*XM h.I.*X*X*X*X*X*XX z.f.1.dXjXjXU ",
"U VXjXdX1.x.v.D *X*X*X*X*X*X*XM b.I.*X*X*X*X*X*XD v.x.1.dXjXVXU ",
"U xXjXdX1.6.'.#X*X*X*X*X*X*X(.7 S.{ *X*X*X*X*X*X#X'.6.1.dXjXxXU ",
"U MXjXdX1.                      G.j %.%.%.%.%.%.%.%.c 1.dXjXMXU ",
"U jXjXdX1.Z 3.3.3.3.3.3.3.3.{ = n.H.*X*X*X*X*X*X*X*XoX1.dXjXjXU ",
"U uXjXtX1.3.r.r.r.r.r.r.r.r.6.5 A.u.*X*X*X*X*X*X*X*X(.1.tXjXuXU ",
"  P U N 5 = 5 5 5 5 5 5 5 5 5 * b.: i i i i i i i i 5 5 N U P   ",
"k eXjX0X1.N.*X*X*X*X*X*X*X*X'.r h.-.*X*X*X*X*X*X*X*XN.1.0XjXeX  ",
"U BXjXdX1.*X*X*X*X*X*X*X*X*X9.- @ r C.*X*X*X*X*X*X*X*X1.dXjXBX  ",
"U BXjXdX1.{ Y.Y.Y.Y.Y.Y.Y.i.g .Xf .X5 J.Y.Y.Y.Y.Y.Y.{ 1.dXjXBX  ",
"U NXjXdX1.                  d |.s }.: u.I.I.I.I.I.I._ 1.dXjXNX  ",
"U jXjXdX1.  2.r.r.r.r.r.r._ d |.s }.i *X*X*X*X*X*X*X*X1.dXjXjX  ",
"U jXjXdX1.  3.r.r.r.r.r.r. .d |.s }.0 _.*X*X*X*X*X*XC.1.dXjXjX  ",
"k 4XwX-X| : 0 0 0 0 0 0 0 : d |.s }.                  | -XwX4X  ",
"  ~.=XQ.F ^.*X*X*X*X*X*X*X(.d |.s }.* F ~ ~ ~ ~ ~ Z   F Q.=X~.  ",
"U xXjXdX1.#X*X*X*X*X*X*X*X#Xd |.s }.5 r.r.r.r.r.r.r.* 1.dXjXxXU ",
"U VXjXdX1.D &.&.&.&.&.&.&.F d |.s }.* c V V V V V c   1.dXjXVXU ",
"U jXjXdX1.r.#X#X*X*X*X*X*XE.a F.a D.r XX*X*X*X*X#X#X#X1.dXjXjXU ",
"U MXjXdX1.h c.F *X*X*X*X*X*XM.: h.D Q.*X*X*X*X*XF c.h 1.dXjXMXU ",
"U jXjXdX1.f.Z.X *X*X*X*X*X*X*XM b.I.*X*X*X*X*X*XX Z.f.1.dXjXjXU ",
"U yXjXeX1.    Q ,.,.,.,.,.,.;.: b.o.,.,.,.,.,.,.Q     1.eXjXyXU ",
"R r i r : ^ q.q.q.q.q.q.q.q.m   j._ '.'.'.'.'.'.'.'.q.: r i r R "
};
