/* XPM */
static char *b75817b039e74902c22b2f7bc68cee94UdITEzyJjAeKIRio[] = {
/* columns rows colors chars-per-pixel */
"32 32 6 1 ",
"  c #6E5967",
". c #AD707B",
"X c #B77F83",
"o c #C39490",
"O c #D1B1A5",
"+ c #DCCABE",
/* pixels */
"                                ",
".ooooOOOOOooOooooooooooooooooo. ",
"ooooooooooooooooooooooooooooooo ",
"oooooooooooooooooooo.o.....oo   ",
"oooooooooooooooooooooOoOOOooooX ",
"ooooooooooooooooooooooooooooooo ",
"ooooooooooooooooooooooooooooooo ",
".ooooooooooooooooooooooooooooo. ",
"                                ",
"OOOooooooooooo. .oooOoOOOOOooooo",
"ooooooooooooooo oooooooooooooooo",
"ooooooo..o.oo   oooooooooooooooo",
"ooooooOoOOooooX oooooooooooooooo",
"ooooooooooooooo oooooooooooooooo",
"ooooooooooooooo oooooooooooooooo",
"oooooooooooooo. .ooooooooooooooo",
"                                ",
".oooOoOO+++OoOOooooooooooooooo. ",
"ooooooooooooooooooooooooooooooo ",
"ooooooooooooooooooooooooooooooo ",
"ooooooooooooooooooooooooooooooX ",
"oooooooooooooooooooooo..o.o     ",
"ooooooooooooooooooooooooOoOOooo ",
".ooooooooooooooooooooooooooooo. ",
"                                ",
"oooooooooooooo. .oooOoOOO+++OOoo",
"ooooooooooooooo oooooooooooooooo",
"oooo...oo.oo    oooooooooooooooo",
"oooooOoooOOoOoX oooooooooooooooo",
"ooooooooooooooo oooooooooooooooo",
"ooooooooooooooo oooooooooooooooo",
"oooooooooooooo. .ooooooooooooooo"
};
