/* XPM */
static char *_9812d04ad2b4fbcef036e6575080225w1RExAatrKLyz4iz[] = {
/* columns rows colors chars-per-pixel */
"32 32 159 2 ",
"   c #3F3851",
".  c #443C55",
"X  c #4B3852",
"o  c #5C3754",
"O  c #593853",
"+  c #623C4F",
"@  c #6D3D4F",
"#  c #623952",
"$  c #603754",
"%  c #7C3657",
"&  c #38455D",
"*  c #3B4B63",
"=  c #395366",
"-  c #3C5C69",
";  c #2B6B7D",
":  c #2A677C",
">  c #356371",
",  c #3B6E75",
"<  c #494156",
"1  c #454159",
"2  c #4A445C",
"3  c #4E485F",
"4  c #564555",
"5  c #7F4049",
"6  c #664D5B",
"7  c #6B535B",
"8  c #6E5B5C",
"9  c #705F5F",
"0  c #474A62",
"q  c #544D64",
"w  c #585268",
"e  c #5E586D",
"r  c #595367",
"t  c #665A68",
"y  c #615B70",
"u  c #526178",
"i  c #6E687B",
"p  c #666578",
"a  c #E54E3C",
"s  c #9A3F50",
"d  c #BE3E53",
"f  c #C73E54",
"g  c #C03958",
"h  c #855B56",
"j  c #895357",
"k  c #A6444C",
"l  c #AC434D",
"z  c #A04F52",
"x  c #AD5554",
"c  c #85655D",
"v  c #B4625B",
"b  c #866D62",
"n  c #887B6F",
"m  c #886F73",
"M  c #86777D",
"N  c #897C71",
"B  c #A17B64",
"V  c #B2766D",
"C  c #B47A70",
"Z  c #DB4B4A",
"A  c #D2444E",
"S  c #DF554F",
"D  c #CC4151",
"F  c #DB5B57",
"G  c #CB474A",
"H  c #E0564F",
"J  c #E35E53",
"K  c #CA6A5D",
"L  c #D76F5E",
"P  c #EA6F4D",
"I  c #E76557",
"U  c #E76758",
"Y  c #E86758",
"T  c #E96959",
"R  c #ED735D",
"E  c #C07F71",
"W  c #E37C64",
"Q  c #F07760",
"!  c #F07860",
"~  c #B8946F",
"^  c #BBA57F",
"/  c #EE8A5B",
"(  c #CA8A68",
")  c #CD8C7A",
"_  c #EB8E6D",
"`  c #F48D6B",
"'  c #F09561",
"]  c #EF967F",
"[  c #DDAD76",
"{  c #F3A66C",
"}  c #F5B978",
"|  c #F6C27D",
" . c #2B6F80",
".. c #287787",
"X. c #5B6C83",
"o. c #5E798F",
"O. c #60758B",
"+. c #7E798A",
"@. c #76788A",
"#. c #6B7D91",
"$. c #647E94",
"%. c #807B8C",
"&. c #738A9D",
"*. c #778897",
"=. c #778FA1",
"-. c #7B95A6",
";. c #7F99A9",
":. c #9B8887",
">. c #8A8492",
",. c #95919F",
"<. c #AC9A96",
"1. c #BEB18B",
"2. c #8698A3",
"3. c #889DA9",
"4. c #9E9AA7",
"5. c #9F9BA8",
"6. c #9694A1",
"7. c #87A2AF",
"8. c #91A3AC",
"9. c #8BA6B3",
"0. c #8DAAB5",
"q. c #87A3B0",
"w. c #91A7B0",
"e. c #92AAB4",
"r. c #91AEB9",
"t. c #94B1BB",
"y. c #9EB9BF",
"u. c #A5A2AE",
"i. c #AAA4AD",
"p. c #ABA9B4",
"a. c #B5B5BE",
"s. c #EF9B84",
"d. c #DCAF9B",
"f. c #C9A596",
"g. c #E4AD98",
"h. c #EEB09A",
"j. c #E4B29D",
"k. c #E1B8A3",
"l. c #DAC794",
"z. c #F3CE8B",
"x. c #F4D18E",
"c. c #FCDC99",
"v. c #FBE39E",
"b. c #ECCEB8",
"n. c #ECD4BE",
"m. c #FEEBA5",
"M. c #FFEFA9",
"N. c #BEBCC4",
"B. c #AAC3C9",
"V. c #B0C5CA",
"C. c #C7C5CD",
"Z. c #CAC8CF",
"A. c #CAD6DA",
"S. c #D5D3D9",
"D. c #E4EAEB",
"F. c #EFEFF1",
"G. c #F4F3F5",
"H. c #F7F7F8",
"J. c #FFFFFF",
/* pixels */
"J.J.J.J.J.J.J.J.J.J.J.J.J.J.J.J.J.J.J.J.J.J.J.J.J.J.J.J.J.J.J.J.",
"J.J.J.J.J.J.J.J.J.J.J.J.J.J.J.J.J.J.J.J.J.J.J.J.J.J.J.J.J.J.J.J.",
"J.J.J.J.J.J.J.J.J.J.J.J.J.J.J.J.J.J.J.J.J.J.J.J.J.J.J.J.J.J.J.J.",
"J.J.J.J.J.J.J.J.J.J.J.J.J.J.J.J.J.J.J.J.J.J.J.J.J.J.J.J.J.J.J.J.",
"J.J.J.J.J.J.J.J.J.J.J.J.J.J.J.J.J.J.J.J.J.J.J.J.J.J.J.J.J.J.J.J.",
"J.J.J.J.J.J.J.J.J.J.J.J.J.J.J.J.J.J.J.J.J.J.J.J.J.J.J.J.J.J.J.J.",
"J.J.J.J.J.J.J.J.J.J.J.J.J.J.J.J.J.J.J.J.J.J.J.J.J.J.J.J.J.J.J.J.",
"J.J.J.J.J.J.J.J.J.J.J.J.J.J.J.J.J.J.J.J.J.J.J.J.J.J.J.J.J.J.J.J.",
"J.J.J.J.J.J.J.J.J.J.J.J.J.J.J.J.J.J.J.J.J.J.J.J.J.J.J.J.J.J.J.J.",
"J.J.J.J.J.J.J.J.J.J.J.J.J.J.J.J.J.J.J.J.J.J.J.J.J.J.J.J.J.J.J.J.",
"J.J.J.J.J.J.J.J.J.J.J.J.J.e e e N.J.y e e e e H.e ,.J.J.J.J.J.J.",
"J.J.J.J.J.J.J.J.J.J.J.J.y a ' { h   / | z.x.v.< m.~ u.J.J.J.J.J.",
"J.J.J.J.J.J.J.J.J.J.J.J.y / ' | B 7 | [ 4 4 l.9 M.1.u.J.J.J.J.J.",
"J.J.J.J.J.J.J.J.J.J.J.J.y P ' | { } | } ( ( c.| m.^ u.J.J.J.J.J.",
"J.J.J.J.J.J.J.J.J.J.J.J.y 5 h b c c b b b b n b N 8 u.J.J.J.J.J.",
"J.J.J.J.J.J.J.J.J.J.J.4.X.#.1 O.#.3.. w.w.p p.e.q S.6.S.J.J.J.J.",
"J.J.J.J.J.J.J.J.J.J.J.>.                              Z.J.J.J.J.",
"J.J.J.J.J.J.J.J.J.J.J.4.. g Z Z Z F V k.k.k.k.C F k q S.J.J.J.J.",
"J.J.J.J.J.J.J.J.J.J.J.J.y Z Z H I g.M b.h.h.h.M j.x u.J.J.J.J.J.",
"J.J.J.J.J.J.J.J.J.J.J.J.y f S R ! ] s.s.K j L s.s.v u.J.J.J.J.J.",
"J.J.J.J.J.J.J.J.J.J.J.J.y o Z J T ! ! ` W ( _ ! ! v u.J.J.J.J.J.",
"J.+.. . . . . . 3 J.J.J.y   + Z I ! ! ! ! ! ! ! ! v u.J.J.J.J.J.",
"5.a.B.D.D.A.A.B.3.i G.>.f.) O % z Z Q R R ! R R R x ,.H.J.J.J.J.",
"5.2.0.t.0.0.r.0.&.i p.<.n.d.6   s l U S S Y J k S k t i.H.J.J.J.",
"5.2.0.9.0.0.9.0.&.i p.<.:.m E 7 $ X f G s A D X d @ :.t F.,.a.J.",
"5.2.0.q.0.0.9.9.&.2 w r . . 6 4     o + X # # . O   4 < i 8.p.a.",
"5.2.0.0.0.0.0.0.&.    u o.7.7.e.y.y.D.B.D.D.V.y.7.7.&.0   r.2.5.",
"5.2.0.0.0.0.0.0.&.. w w w                         1 w w w o.*.p.",
"5.2.0.t.0.0.r.0.&.i J.J.J.  * = = = - - = = = = & %.J.J.J.+.u.J.",
"5.2.0.9.0.0.0.0.&.i J.J.J.  ..; > > , , > > > .. .%.J.J.J.J.J.J.",
"5.*.;.=.-.-.-.-.$.i J.J.J.  : @.C.C.C.C.C.C.C.* : %.J.J.J.J.J.J.",
"H.+.1 1 1 1 1 1 2 G.J.J.J.  p G.J.J.J.J.J.J.J.1 w G.J.J.J.J.J.J."
};
