/* XPM */
static char *close_door_test[] = {
/* columns rows colors chars-per-pixel */
"96 96 24 1 ",
"  c #3F3851",
". c #584B57",
"X c #6E5967",
"o c #89365C",
"O c #9E3B57",
"+ c #AE444E",
"@ c #926475",
"# c #AD707B",
"$ c #D25654",
"% c #D2727E",
"& c #E27F6D",
"* c #EDA27F",
"= c #5D7889",
"- c #728896",
"; c #B98080",
": c #86A0A8",
"> c #C39490",
", c #E28989",
"< c #EDA799",
"1 c #FBCA97",
"2 c #FBCAAE",
"3 c #FFEAB7",
"4 c #FAEBCF",
"5 c #FFFAD6",
/* pixels */
"                                                                                                ",
"            ooO+++++Ooo             ooO+++++Ooo             ooO+++++Ooo             ooO+++++Ooo ",
"                                                                                                ",
"&&&&&&$$ $$&&&&&&&&&&&&&&&$  $&&&&&&&&&&&&&&&&&&&&&&&&$$ $$&&&&&&&&&&&&&&&$  $&&&&&&&&&&&&&&&&&&",
"111**&&& &&&**111111111*&&&  &&&*111111111111111111**&&& &&&**111111111*&&&  &&&*111111111111111",
"11111*&& &&*111111111111**&  &**111111111111111111111*&& &&*111111111111**&  &**1111111111111111",
"111111&& &&111111111111111&  &111111111111111111111111&& &&111111111111111&  &111111111111111111",
"33111*&& &&*111335333111**&  &**111355533111355333111*&& &&*111335333111**&  &**1113555331113553",
".                                                                                              .",
".                                                                                              .",
".                                                                                              .",
" *135331* &*11353313531311*& &*135311355311*& &*11335311*& &*113531311*& &*113553331*& *133531* ",
" *135331* &*11353313531311*& &*135311355311*& &*11335311*& &*113531311*& &*113553331*& *133531* ",
" *135331* &*11353313531311*& &*135311355311*& &*11335311*& &*113531311*& &*113553331*& *133531* ",
" *135331* &*11353313531311*& &*135311355311*& &*11335311*& &*113531311*& &*113553331*& *133531* ",
" 11111111 &1111111111111XXXXXXXXXXXXXXXXXXXXXXXXXXXXXXXXXXXXXXXXXXXXXXXXX&11111111111& 11111111 ",
" 11111111 &1111111111XXX22<<XX<22222442244422<<XX<2222244224444422<XX<<22XXX111111111& 11111111 ",
" 11111111 &1111111111XXX22<<XX<22222442244422<<XX<2222244224444422<XX<<22XXX111111111& 11111111 ",
" 11111111 &1111111XXX<<22222XX22222222222222222XX222222222222222222XX22222<<XXX111111& 11111111 ",
" 11111111 &11111XX<444422222XX22222222222222222XX222222222222222222XX222224444<XX1111& 11111111 ",
" 11111111 &11111XX<444422222XX22222222222222222XX222222222222222222XX222224444<XX1111& 11111111 ",
" 11111111 &111XX<<42222222<<XX<22222222222222<<XX<2222222222222222<XX<<22222224<<XX11& 11111111 ",
" 11111111 &1XX<<4422222<,,,,XX,,,,,,,,,,,,,,,,,XX,,,,,,,,,,,,,,,,,,XX,,,,<2222244<<XX& 11111111 ",
" 11111111 &*XX<<4422222<,,,,XX,,,,,,,,,,,,,,,,,XX,,,,,,,,,,,,,,,,,,XX,,,,<2222244<<XX& 11111111 ",
" 11111111 &*XX2222222<<,,,%%XXXXXXXXXXXXXXXXXXXXXXXXXXXXXXXXXXXXXXXXX%%,,,<<2222222XX& 11111111 ",
" 11111111 &X<<22222<<,,,XXXXXX@############@@XXXX=XXXX@###########@XXXXXX,,,<<22222<<X 11111111 ",
" *111111* &X<<22222<<,,,XXXXXX@############@@XXXX=XXXX@###########@XXXXXX,,,<<22222<<X *111111* ",
" *111111* &X2222222,,,,XXXXX@@###############XXXX=XXXX#############@@XXXXX,,,,2222222X *111111* ",
" *111111*XX<222222<,,XXXXXXXXXXXXXXXXXXXXXXXXXXXX=XXXXXXXXXXXXXXXXXXXXXXXXXX,,<222222<XX111111* ",
" *111111*XX<222222<,,XXXXXXXXXXXXXXXXXXXXXXXXXXXX=XXXXXXXXXXXXXXXXXXXXXXXXXX,,<222222<XX111111* ",
" &*1111*&XX2222222,,,XXX@@#################@@XXXX=XXXXXXXXXXXXXXXXXXXXXXXXXX,,,2222222XX*1111*& ",
" &*1111*&XX2222222,XXXX@####;;>>>>>>>>>>>>;##XXXX-XXXX#;;>>>>>>>>>>>>;;##@XXXX,2222222XX*1111*& ",
" &*1111*&XX2222222,XXXX@####;;>>>>>>>>>>>>;##XXXX-XXXX#;;>>>>>>>>>>>>;;##@XXXX,2222222XX*1111*& ",
" &&&&&&&&XX<2222<<,XXXX#####>>>>>>>>>>>>>>>##XXXX-XXXX#>>>>>>>>>>>>>>>>###XXXX,<<2222<XX&&&&&&& ",
" &&&&&&&&XXXXXXXXXXXXXXXXXXXXXXXXXXXXXXXXXXXXXXXX=XXXXXXXXXXXXXXXXXXXXXXXXXXXXXXXXXXXXXX&&&&&&& ",
" &&&&&&&&XXXXXXXXXXXXXXXXXXXXXXXXXXXXXXXXXXXXXXXX=XXXXXXXXXXXXXXXXXXXXXXXXXXXXXXXXXXXXXX&&&&&&& ",
" &&&&&&&&XX<2222<<,XXXXXXX##>>>>>>>>>>>>>>>>>##XX-XX##>>>>>>>>>>>>>>>##XXXXXXX,<<2222<XX&&&&&&& ",
" $&&&&&&$XX2222222,XX==-==XX>>>>>>>>>>>>>>>>>>>XX=XX>>>>>>>>>>>>>>>>>XX==-==XX,2222222XX&&&&&&$ ",
" $&&&&&&$XX2222222,XX==-==XX>>>>>>>>>>>>>>>>>>>XX=XX>>>>>>>>>>>>>>>>>XX==-==XX,2222222XX&&&&&&$ ",
" $&&&&&&$XX4222222,XX--:--XX>>>>>>>>>>>>>>>>>>>XX-XX>>>>>>>>>>>>>>>>>XX--:--XX,2222224XX&&&&&&$ ",
" $&&&&&&$XX4222222,XXXXXXX##>>>>>>>>>>>>>>>>>>>XX-XX>>>>>>>>>>>>>>>>>##XXXXXXX,2222224XX&&&&&&$ ",
"         XX4222222,XXXXXXX##>>>>>>>>>>>>>>>>>>>XX-XX>>>>>>>>>>>>>>>>>##XXXXXXX,2222224XX        ",
"         XX2222222,XX##>>>>>>>>>>>>>>>>>>>>>>##XX:XX##>>>>>>>>>>>>>>>>>>>>##XX,2222222XX        ",
"         XX4222222,XXXXXXXXXXXXXXXXXXXXXXXXXXXXXX:XXXXXXXXXXXXXXXXXXXXXXXXXXXX,2222224XX        ",
" &&&&&&$ XX4222222,XXXXXXXXXXXXXXXXXXXXXXXXXXXXXX:XXXXXXXXXXXXXXXXXXXXXXXXXXXX,2222224XX$&&&&&& ",
" &&&&&&$ XX2222222,XXXXXXXXXXXXXXXXXXXXXXXXXXXXXX:XX##>>>>>>>>>>>>>>>>>>>>##XX,2222222XX$&&&&&& ",
" &&&&&&$ XX2222222,XX@@######################@@XX-XX>>>>>>>>>>>>>>>>>>>>>>>>XX,2222222XX$&&&&&& ",
" &&&&&&$ XX2222222,XX@@######################@@XX-XX>>>>>>>>>>>>>>>>>>>>>>>>XX,2222222XX$&&&&&& ",
" *11*&&& XX2222222,XX##########################XX:XX>>>>>>>>>>>>>>>>>>>>>>>>XX,2222222XX&&&*11* ",
" *11*&&& XX<2222<<,XX@@######################@@XX-XX##>>>>>>>>>>>>>>>>>>>>##XX,<<2222<XX&&&*11* ",
" *11*&&& XX<2222<<,XX@@######################@@XX-XX##>>>>>>>>>>>>>>>>>>>>##XX,<<2222<XX&&&*11* ",
" *11*&&& XXXXXXXXXXXXXXXXXXXXXXXXXXXXXXXXXXXXXXXX-XXXXXXXXXXXXXXXXXXXXXXXXXXXXXXXXXXXXXX&&&*11* ",
" *11*&&& XX<2222<<,XX##>>>>>>>>>>>>>>>>>>>>>>##XX=XX##>>>>>>>>>>>>>>>>>>>>##XX,<<2222<XX&&&*11* ",
" *11*&&& XX<2222<<,XX##>>>>>>>>>>>>>>>>>>>>>>##XX=XX##>>>>>>>>>>>>>>>>>>>>##XX,<<2222<XX&&&*11* ",
" 1111*&& XX2222222,XX>>>>>>>>>>>>>>>>>>>>>>>>>>XX=XX>>>>>>>>>>>>>>>>>>>>>>>>XX,2222222XX&&*1111 ",
" 1111*&& XX4222222,XX>>>>>>>>>>>>>>>>>>>>>>##XXXXXXXXX#>>>>>>>>>>>>>>>>>>>>>XX,2222224XX&&*1111 ",
" 1111*&& XX4222222,XX>>>>>>>>>>>>>>>>>>>>>>##XXXXXXXXX#>>>>>>>>>>>>>>>>>>>>>XX,2222224XX&&*1111 ",
" 11111&& XX4222222,XX##>>>>>>>>>>>>>>>>>>>;XX::::X::::X;;>>>>>>>>>>>>>>>>>##XX,2222224XX&&11113 ",
" 11111&& XX2222222,XXXXXXXXXXXXXXXXXXXXXXXXXX--::X--::XXXXXXXXXXXXXXXXXXXXXXXX,2222222XX&&11113 ",
" 11111&& XX4222222,XXXXXXXXXXXXXXXXXXXXXXXXXX--::X--::X##>>>>>>>>>>>>>>>>>##XX,2222224XX&&11113 ",
" 11111&& XX4222222,XXXXXXXXXXXXXXXXXXXXXXXXXX--::X--::X##>>>>>>>>>>>>>>>>>##XX,2222224XX&&11113 ",
" 31111&& XX2222222,XXXX@##################@XX--::X--::X>>>>>>>>>>>>>>>>>>>>>XX,2222222XX&&11113 ",
" 31111&& XX2222222,XXXX####################XX--::X--::X>>>>>>>>>>>>>>>>>>>>>XX,2222222XX&&11113 ",
" 31111&& XX2222222,XXXX####################XX--::X--::X>>>>>>>>>>>>>>>>>>>>>XX,2222222XX&&11113 ",
" 31111&& XX2222222,XXXX@##################@XX--::X--::X##>>>>>>>>>>>>>>>>>##XX,2222222XX&&11111 ",
" 31111&& XX<2222<<,XXXXXXXXXXXXXXXXXXXXXXXXXX--::X--::XXXXXXXXXXXXXXXXXXXXXXXX,<<2222<XX&&11111 ",
" 31111&& XX<2222<<,XXXXXXXXXXXXXXXXXXXXXXXXXX--::X--::XXXXXXXXXXXXXXXXXXXXXXXX,<<2222<XX&&11111 ",
" 31111&& XXXXXXXXXXXX##>>>>>>>>>>>>>>>>>>>#XX--::X--::XXXXXXXXXXXXXXXXXXXXXXXXXXXXXXXXXX&&11111 ",
" 51111&& XX<2222<<,XX>>>>>>>>>>>>>>>>>>>>>>XX--::X--::X@@################@XXXX,<<2222<XX&&11113 ",
" 51111&& XX<2222<<,XX>>>>>>>>>>>>>>>>>>>>>>XX--::X--::X@@################@XXXX,<<2222<XX&&11113 ",
" 51111&& XX2222222,XX>>>>>>>>>>>>>>>>>>>>>>XX--::X--::X###################XXXX,2222222XX&&11113 ",
" 51111&& XX4222222,XX##>>>>>>>>>>>>>>>>>>>#XX--::X--::X@@################@XXXX,2222224XX&&11113 ",
" 51111&& XX4222222,XX##>>>>>>>>>>>>>>>>>>>#XX--::X--::X@@################@XXXX,2222224XX&&11115 ",
" 51111&& XX4222222,XXXXXXXXXXXXXXXXXXXXXXXXXX--::X--::XXXXXXXXXXXXXXXXXXXXXXXX,2222224XX&&11115 ",
" 51111&& XX2222222,XX##>>>>>>>>>>>>>>>>>>>;XX==::X==::X;;>>>>>>>>>>>>>>>>>>>XX,2222222XX&&11115 ",
" 31111&& XX2222222,XX##>>>>>>>>>>>>>>>>>>>;XX==::X==::X;;>>>>>>>>>>>>>>>>>>>XX,2222222XX&&11113 ",
" 31111&& XX4222222,XXXXXXX##>>>>>>>>>>>>>>>##XXXX=XXXX#>>>>>>>>>>>>>>##XXXXXXX,2222224XX&&11113 ",
" 31111&& XX2222222,XX--:--XX>>>>>>>>>>>>>>>>>;;XX=XX;;>>>>>>>>>>>>>>>XX--:--XX,2222222XX&&11113 ",
" 31111&& XX2222222,XX--:--XX>>>>>>>>>>>>>>>>>;;XX=XX;;>>>>>>>>>>>>>>>XX--:--XX,2222222XX&&11113 ",
" 11111&& XX2222222,XX==-==XX>>>>>>>>>>>>>>>>>>>XX-XX>>>>>>>>>>>>>>>>>XX==-==XX,2222222XX&&11111 ",
" 11111&& XX2222222,XXXXXXX##>>>>>>>>>>>>>>>>>##XX-XX>>>>>>>>>>>>>>>>>##XXXXXXX,2222222XX&&11111 ",
" 11111&& XX2222222,XXXXXXX##>>>>>>>>>>>>>>>>>##XX-XX>>>>>>>>>>>>>>>>>##XXXXXXX,2222222XX&&11111 ",
" 1111*&& XX<2222<<,XXXXXXXXXXXXXXXXXXXXXXXXXXXXXX-XXXXXXXXXXXXXXXXXXXXXXXXXXXX,<<2222<XX&&*1111 ",
" 1111*&& XXXXXXXXXXXX@@####################@@XXXX=XX##>>>>>>>>>>>>>>>>>>>>##XXXXXXXXXXXX&&*1111 ",
" 1111*&& XXXXXXXXXXXX@@####################@@XXXX=XX##>>>>>>>>>>>>>>>>>>>>##XXXXXXXXXXXX&&*1111 ",
" 1111*&& XX<2222<<,XX########################XXXX-XX>>>>>>>>>>>>>>>>>>>>>>>>XX,<<2222<XX&&*1111 ",
" *11*&&& XX2222222,XX@@####################@@XXXX=XX>>>>>>>>>>>>>>>>>>>>>>>>XX,2222222XX&&&*11* ",
" *11*&&& XX2222222,XX@@####################@@XXXX=XX>>>>>>>>>>>>>>>>>>>>>>>>XX,2222222XX&&&*11* ",
" *11*&&& XX4222222,XXXXXXXXXXXXXXXXXXXXXXXXXXXXXX-XX##>>>>>>>>>>>>>>>>>>>>##XX,2222224XX&&&*11* ",
" *11*&&& XX4222222,XXXXXXXXXXXXXXXXXXXXXXXXXXXXXX=XXXXXXXXXXXXXXXXXXXXXXXXXXXX,2222224XX&&&*11* ",
" &&&&&&$ XX4222222,XXXXXXXXXXXXXXXXXXXXXXXXXXXXXX=XXXXXXXXXXXXXXXXXXXXXXXXXXXX,2222224XX$&&&&&& ",
" &&&&&&$ XX2222222,XX##>>>>>>>>>>>>>>>>>>>>>>##XX=XXXXXXXXXXXXXXXXXXXXXXXXXXXX,2222222XX$&&&&&& ",
" &&&&&&$ XX<2222<<,XX>>>>>>>>>>>>>>>>>>>>>>>>>>XX=XXXX####################XXXX,<<2222<XX$&&&&&& ",
" &&&&&&$ XX<2222<<,XX>>>>>>>>>>>>>>>>>>>>>>>>>>XX=XXXX####################XXXX,<<2222<XX$&&&&&& ",
"         XX,,,,,,,%XX##>>>>>>>>>>>>>>>>>>>>>>##XX=XXXX@##################@XXXX%,,,,,,,XX        ",
"         XXXXXXXXXXXXXXXXXXXXXXXXXXXXXXXXXXXXXXXXXXXXXXXXXXXXXXXXXXXXXXXXXXXXXXXXXXXXXXX        "
};
