/* XPM */
static char *exit_test[] = {
/* columns rows colors chars-per-pixel */
"96 96 80 1 ",
"  c #3F3851",
". c #584B57",
"X c #765657",
"o c #795756",
"O c #775856",
"+ c #77575A",
"@ c #77575C",
"# c #79565A",
"$ c #7C5558",
"% c #7E535D",
"& c #7A555D",
"* c #7C545F",
"= c #73595A",
"- c #75585A",
"; c #6E5967",
": c #765661",
"> c #7A5461",
", c #725863",
"< c #705865",
"1 c #80525C",
"2 c #926475",
"3 c #9F767E",
"4 c #AB6F79",
"5 c #A77375",
"6 c #A57477",
"7 c #A87176",
"8 c #A6737A",
"9 c #A37578",
"0 c #A57478",
"q c #A7727C",
"w c #A0757E",
"e c #AA7178",
"r c #AD707B",
"t c #D25654",
"y c #D2727E",
"u c #E27F6D",
"i c #EDA27F",
"p c #5D7889",
"a c #997881",
"s c #728896",
"d c #AC8387",
"f c #A8858B",
"g c #B98080",
"h c #BF978F",
"j c #BF9692",
"k c #BB9797",
"l c #BF9694",
"z c #BA9897",
"x c #BB9799",
"c c #BD9699",
"v c #BA979E",
"b c #BB999A",
"n c #86A0A8",
"m c #C3938F",
"M c #C4938F",
"N c #C1968F",
"B c #C4958F",
"V c #C59392",
"C c #C39490",
"Z c #C29590",
"A c #C49492",
"S c #C69294",
"D c #C29496",
"F c #C89194",
"G c #E28989",
"H c #EDA799",
"J c #CDAFAD",
"K c #D4AFA7",
"L c #D2AFA9",
"P c #D4AFA9",
"I c #D8ABA8",
"U c #D9ACA9",
"Y c #CEB0AE",
"T c #D2B0A7",
"R c #CFAFB0",
"E c #FBCA97",
"W c #FBCAAE",
"Q c #FFEAB7",
"! c #FAEBCF",
"~ c #FFFAD6",
/* pixels */
"*&&&++#+-=====--+----+&&++&&++&&++&@+-@+++&#&&::>&&&++#+-=====--+----+&&++&&++&&++&@+-@+++&#&&::",
"w3ccxkckYYYJYYYkxzRYbxccxkccxxccxxxxxbxxkkccc3a@33ccxkckYYYJYYYkxzRYbxccxkccxxccxxxxxbxxkkccc3a:",
"06DDDZDjKTPPLPPjZZPPlDDZZZDDDDDDDDDDDDDDZZDDD93*96DDDZDjKTPPLPPjZZPPlDDZZZDDDDDDDDDDDDDDZZDDD93&",
"SVAAAAAZNhNZhhZZBAZZZAAABBAAAAVVVVSSSSVVVAAZDcv&DVAAAAAZNhNZhhZZBAZZZAAABBAAAAVVVVSSSSVVVAAZDcv@",
"VAAABBAANNNNZZZZAAAZAAAAAAAABA7eF77eerr77VAl@,,@lAAAABAANNNNZZZZAAAZAAAAAAAABA7eF77eerr77VAl@,,<",
"AAAABBAABmBBAAZZAAAAAAAAAAAABA7eS57eeee77VAl@,,@lAAAAAABBmBBAAZZAAAAAAAAAAAABA7eS57eeee77VAl@,,,",
"AAAABBBAmBAAAAAAAAAABBAAAAAAZBVVIZAIUIUAAVAZDdf#DAAABBBBmBAAAAAAAAAABBAAAAAAZBVVIZAIUIUAAVAZDdf@",
"AAAABBBBBBAAAAAABBAABBAAAAAANNAAZZZZhhjZZAAAMDc$DAAABBBBBBAAAAAABBAABBAAAAAANNAAZZZZhhjZZAAAMDc&",
"BBAAAANNAAABBBBBAAAAAAAZZZNNAAAAAZAZZZNNAAZNADc$ZBAAAANNAAABBBBBAAAAAAAZZZNNAAAAAZAZZZNNAAZNADc&",
"SVAAAANNAAAABBBBAAAAAAANZZNNAAAAAAAAAANNAAZBADc$SVAAAANNAAAABBBBAAAAAAANZZNNAAAAAAAAAANNAAZBADc&",
"47VAAAAAAAAAAABBAABBABBBBBBBAAAAAAAAAAmABAAAV6w187VAAAAAAAAAAABBAABBABBBBBBBAAAAAAAAAAmABAAAV6w*",
"q8ZjZDDDDDDDDDDDDZZZZZDZDDZDZZllDDljDjljZDDDS9w%q8ZjZDDDDDDDDDDDDZZZZZDZDDZDZZllDDljDjljZDDDS9w*",
"##+Oo##$##$$##$$##$$$&&&**$$#o++o#+OXO+Ooo#$$#&&##+Oo##$##$$##$$##$$$&&&**$$#o++o#+OXO+Ooo#$$#&&",
".                      ;;;;;;;;;;;;;;;;;;;;;;;;;;;;;;;;;;;;;;;;;;;;;;;;;                       .",
".                   ;;;WWHH;;HWWWWW!!WW!!!WWHH;;HWWWWW!!WW!!!!!WWH;;HHWW;;;                    .",
".                   ;;;WWHH;;HWWWWW!!WW!!!WWHH;;HWWWWW!!WW!!!!!WWH;;HHWW;;;                    .",
" iEQ~QQEi uiEEQ~Q;;;HHWWWWW;;WWWWWWWWWWWWWWWWW;;WWWWWWWWWWWWWWWWWW;;WWWWWHH;;;~~QQQEiu iEQQ~QEi ",
" iEQ~QQEi uiEEQ;;H!!!!WWWWW;;WWWWWWWWWWWWWWWWW;;WWWWWWWWWWWWWWWWWW;;WWWWW!!!!H;;QQQEiu iEQQ~QEi ",
" iEQ~QQEi uiEEQ;;H!!!!WWWWW;;WWWWWWWWWWWWWWWWW;;WWWWWWWWWWWWWWWWWW;;WWWWW!!!!H;;QQQEiu iEQQ~QEi ",
" iEQ~QQEi uiE;;HH!WWWWWWWHH;;HWWWWWWWWWWWWWWHH;;HWWWWWWWWWWWWWWWWH;;HHWWWWWWW!HH;;QEiu iEQQ~QEi ",
" EEEEEEEE u;;HH!!WWWWWHGGGG;;GGGGGGGGGGGGGGGGG;;GGGGGGGGGGGGGGGGGG;;GGGGHWWWWW!!HH;;Eu EEEEEEEE ",
" EEEEEEEE u;;HH!!WWWWWHGGGG;;GGGGGGGGGGGGGGGGG;;GGGGGGGGGGGGGGGGGG;;GGGGHWWWWW!!HH;;Eu EEEEEEEE ",
" EEEEEEEE u;;WWWWWWWHHGGGyy;;;;;;;;;;;;;;;;;;;;;;;;;;;;;;;;;;;;;;;;;yyGGGHHWWWWWWW;;Eu EEEEEEEE ",
" EEEEEEEE ;HHWWWWWHHGGG;;;;;;2rrrrrrrrrrrr22;;;;p;;;;2rrrrrrrrrrr2;;;;;;GGGHHWWWWWHH;u EEEEEEEE ",
" EEEEEEEE ;HHWWWWWHHGGG;;;;;;2rrrrrrrrrrrr22;;;;p;;;;2rrrrrrrrrrr2;;;;;;GGGHHWWWWWHH;u EEEEEEEE ",
" EEEEEEEE ;WWWWWWWGGGG;;;;;22rrrrrrrrrrrrrrr;;;;p;;;;rrrrrrrrrrrrr22;;;;;GGGGWWWWWWW;u EEEEEEEE ",
" EEEEEEE;;HWWWWWWHGG;;;;;;;;;;;;;;;;;;;;;;;;;;;;p;;;;;;;;;;;;;;;;;;;;;;;;;;GGHWWWWWWH;;EEEEEEEE ",
" EEEEEEE;;HWWWWWWHGG;;;;;;;;;;;;;;;;;;;;;;;;;;;;p;;;;;;;;;;;;;;;;;;;;;;;;;;GGHWWWWWWH;;EEEEEEEE ",
" EEEEEEE;;WWWWWWWGGG;;;22rrrrrrrrrrrrrrrrr22;;;;p;;;;;;;;;;;;;;;;;;;;;;;;;;GGGWWWWWWW;;EEEEEEEE ",
" EEEEEEE;;WWWWWWWG;;;;2rrrrggZZZZZZZZZZZZgrr;;;;s;;;;rggZZZZZZZZZZZZggrr2;;;;GWWWWWWW;;EEEEEEEE ",
" iEEEEEE;;WWWWWWWG;;;;2rrrrggZZZZZZZZZZZZgrr;;;;s;;;;rggZZZZZZZZZZZZggrr2;;;;GWWWWWWW;;iEEEEEEi ",
" iEEEEEE;;HWWWWHHG;;;;rrrrrZZZZZZZZZZZZZZZrr;;;;s;;;;rZZZZZZZZZZZZZZZZrrr;;;;GHHWWWWH;;iEEEEEEi ",
" iEEEEEE;;;;;;;;;;;;;;;;;;;;;;;;;;;;;;;;;;;;;;;;p;;;;;;;;;;;;;;;;;;;;;;;;;;;;;;;;;;;;;;iEEEEEEi ",
" iEEEEEE;;;;;;;;;;;;;;;;;;;;;;;;;;;;;;;;;;;;;;;;p;;;;;;;;;;;;;;;;;;;;;;;;;;;;;;;;;;;;;;iEEEEEEi ",
" uiEEEEi;;HWWWWHHG;;;;;;;rrZZZZZZZZZZZZZZZZZrr;;s;;rrZZZZZZZZZZZZZZZrr;;;;;;;GHHWWWWH;;uiEEEEiu ",
" uiEEEEi;;WWWWWWWG;;ppspp;;ZZZZZZZZZZZZZZZZZZZ;;p;;ZZZZZZZZZZZZZZZZZ;;ppspp;;GWWWWWWW;;uiEEEEiu ",
" uiEEEEi;;WWWWWWWG;;ppspp;;ZZZZZZZZZZZZZZZZZZZ;;p;;ZZZZZZZZZZZZZZZZZ;;ppspp;;GWWWWWWW;;uiEEEEiu ",
" uuuuuuu;;!WWWWWWG;;ssnss;;ZZZZZZVZZZZZZZZZZZZ;;s;;ZZZZZZVZZZZZZZZZZ;;ssnss;;GWWWWWW!;;uuuuuuuu ",
" uuuuuuu;;!WWWWWWG;;;;;;;rrZZZZZZZZZZZZZZZZZZZ;;s;;ZZZZZZZZZZZZZZZZZrr;;;;;;;GWWWWWW!;;uuuuuuuu ",
" uuuuuuu;;!WWWWWWG;;;;;;;rrZZZZZZZZZZZZZZZZZZZ;;s;;ZZZZZZZZZZZZZZZZZrr;;;;;;;GWWWWWW!;;uuuuuuuu ",
" tuuuuuu;;WWWWWWWG;;rrZZZZZZZZZZZZZZZZZZZZZZrr;;n;;rrZZZZZZZZZZZZZZZZZZZZrr;;GWWWWWWW;;tuuuuuut ",
" tuuuuuu;;!WWWWWWG;;;;;;;;;;;;;;;;;;;;;;;;;;;;;;n;;;;;;;;;;;;;;;;;;;;;;;;;;;;GWWWWWW!;;tuuuuuut ",
" tuuuuuu;;!WWWWWWG;;;;;;;;;;;;;;;;;;;;;;;;;;;;;;n;;;;;;;;;;;;;;;;;;;;;;;;;;;;GWWWWWW!;;tuuuuuut ",
" tuuuuuu;;WWWWWWWG;;;;;;;;;;;;;;;;;;;;;;;;;;;;;;n;;rrZZZZZZZZZZZZZZZZZZZZrr;;GWWWWWWW;;tuuuuuut ",
"        ;;WWWWWWWG;;22rrrrrrrrrrrrrrrrrrrrrr22;;s;;ZZZZZZZZZZZZZZZVZZZZZZZZ;;GWWWWWWW;;         ",
"        ;;WWWWWWWG;;22rrrrrrrrrrrrrrrrrrrrrr22;;s;;ZZZZZZZZZZZZZZZZZZZZZZZZ;;GWWWWWWW;;         ",
"        ;;WWWWWWWG;;rrrrrrrrrrrrrrrrrrrrrrrrrr;;n;;ZZZZZZVZZZZZZZZZZZZZZZZZ;;GWWWWWWW;;         ",
" uuuuuut;;HWWWWHHG;;22rrrrrrrrrrrrrrrrrrrrrr22;;s;;rrZZZZZZZZZZZZZZZZZZZZrr;;GHHWWWWH;; tuuuuuu ",
" uuuuuut;;HWWWWHHG;;22rrrrrrrrrrrrrrrrrrrrrr22;;s;;rrZZZZZZZZZZZZZZZZZZZZrr;;GHHWWWWH;; tuuuuuu ",
" uuuuuut;;;;;;;;;;;;;;;;;;;;;;;;;;;;;;;;;;;;;;;;s;;;;;;;;;;;;;;;;;;;;;;;;;;;;;;;;;;;;;; tuuuuuu ",
" uuuuuut;;HWWWWHHG;;rrZZZZZZZZZZZZZZZZZZZZZZrr;;p;;rrZZZZZZZZZZZZZVZZZZZZrr;;GHHWWWWH;; tuuuuuu ",
" iEEiuuu;;HWWWWHHG;;rrZZZZZZZZZZZZZZZZZZZZZZrr;;p;;rrZZZZZZZZZZZZZZZZZZZZrr;;GHHWWWWH;; uuuiEEi ",
" iEEiuuu;;WWWWWWWG;;ZZZZZZZZZZZZZZZZZZZZZZZZZZ;;p;;ZZZZZZZZZZZZZZZZZZZZZZZZ;;GWWWWWWW;; uuuiEEi ",
" iEEiuuu;;!WWWWWWG;;ZZZZZZZZZZZVZZZZZZZZZZrr;;;;;;;;;rZZZZZZZZZZZZZZZZZZZZZ;;GWWWWWW!;; uuuiEEi ",
" iEEiuuu;;!WWWWWWG;;ZZZZZZZZZZZZZZZZZZZZZZrr;;;;;;;;;rZZZZZVZZZZZZZZZZZZZZZ;;GWWWWWW!;; uuuiEEi ",
" iEEiuuu;;!WWWWWWG;;rrZZZZZZZZZZZZZZZZZZZg;;nnnn;nnnn;ggZZZZZZZZZZZVZZZZZrr;;GWWWWWW!;; uuuiEEi ",
" EEEEiuu;;WWWWWWWG;;;;;;;;;;;;;;;;;;;;;;;;;;ssnn;ssnn;;;;;;;;;;;;;;;;;;;;;;;;GWWWWWWW;; uuiEEEE ",
" EEEEiuu;;!WWWWWWG;;;;;;;;;;;;;;;;;;;;;;;;;;ssnn;ssnn;rrZZZZZZZZZZZZZZZZZrr;;GWWWWWW!;; uuiEEEE ",
" EEEEiuu;;!WWWWWWG;;;;;;;;;;;;;;;;;;;;;;;;;;ssnn;ssnn;rrZZZZZZZZZZZZZZZZZrr;;GWWWWWW!;; uuiEEEE ",
" EEEEEuu;;WWWWWWWG;;;;2rrrrrrrrrrrrrrrrrr2;;ssnn;ssnn;ZZZZZZZZZZZZZZZZZZZZZ;;GWWWWWWW;; uuEEEEQ ",
" EEEEEuu;;WWWWWWWG;;;;rrrrrrrrrrrrrrrrrrrr;;ssnn;ssnn;ZZZZZZZZZZZZZZZZZZZZZ;;GWWWWWWW;; uuEEEEQ ",
" EEEEEuu;;WWWWWWWG;;;;rrrrrrrrrrrrrrrrrrrr;;ssnn;ssnn;ZZZZZZZZZZZZZZZZZZZZZ;;GWWWWWWW;; uuEEEEQ ",
" EEEEEuu;;WWWWWWWG;;;;2rrrrrrrrrrrrrrrrrr2;;ssnn;ssnn;rrZZZZZZZZZZZZZZZZZrr;;GWWWWWWW;; uuEEEEQ ",
" QEEEEuu;;HWWWWHHG;;;;;;;;;;;;;;;;;;;;;;;;;;ssnn;ssnn;;;;;;;;;;;;;;;;;;;;;;;;GHHWWWWH;; uuEEEEQ ",
" QEEEEuu;;HWWWWHHG;;;;;;;;;;;;;;;;;;;;;;;;;;ssnn;ssnn;;;;;;;;;;;;;;;;;;;;;;;;GHHWWWWH;; uuEEEEQ ",
" QEEEEuu;;;;;;;;;;;;rrZZZZZZZZZZZZZZZZZZZr;;ssnn;ssnn;;;;;;;;;;;;;;;;;;;;;;;;;;;;;;;;;; uuEEEEQ ",
" QEEEEuu;;HWWWWHHG;;ZZZZZZZZZZZZZZZZZZZZZZ;;ssnn;ssnn;22rrrrrrrrrrrrrrrr2;;;;GHHWWWWH;; uuEEEEE ",
" QEEEEuu;;HWWWWHHG;;ZZZZZZZZZZZZZZZZZZZZZZ;;ssnn;ssnn;22rrrrrrrrrrrrrrrr2;;;;GHHWWWWH;; uuEEEEE ",
" QEEEEuu;;WWWWWWWG;;ZZZZZZZZZZZZZZZZZZZZZZ;;ssnn;ssnn;rrrrrrrrrrrrrrrrrrr;;;;GWWWWWWW;; uuEEEEE ",
" QEEEEuu;;!WWWWWWG;;rrZZZZZZZZZZZZZZZZZZZr;;ssnn;ssnn;22rrrrrrrrrrrrrrrr2;;;;GWWWWWW!;; uuEEEEE ",
" ~EEEEuu;;!WWWWWWG;;rrZZZZZZZZZZZZZZZZZZZr;;ssnn;ssnn;22rrrrrrrrrrrrrrrr2;;;;GWWWWWW!;; uuEEEEQ ",
" ~EEEEuu;;!WWWWWWG;;;;;;;;;;;;;;;;;;;;;;;;;;ssnn;ssnn;;;;;;;;;;;;;;;;;;;;;;;;GWWWWWW!;; uuEEEEQ ",
" ~EEEEuu;;WWWWWWWG;;rrZZZZZZZZZZZZZZZZZZZg;;ppnn;ppnn;ggZZZZZZZZZZZZZZZZZZZ;;GWWWWWWW;; uuEEEEQ ",
" ~EEEEuu;;WWWWWWWG;;rrZZZZZZZZZZZZZZZZZZZg;;ppnn;ppnn;ggZZZZZZZZZZZZZZZZZZZ;;GWWWWWWW;; uuEEEE~ ",
" ~EEEEuu;;!WWWWWWG;;;;;;;rrZZZZZZZZZZZZZZZrr;;;;p;;;;rZZZZZZZZZVZZZZrr;;;;;;;GWWWWWW!;; uuEEEE~ ",
" ~EEEEuu;;WWWWWWWG;;ssnss;;ZZZZZZZZVZZZZZZZZgg;;p;;ggZZZZZZZZZZVZZZZ;;ssnss;;GWWWWWWW;; uuEEEE~ ",
" QEEEEuu;;WWWWWWWG;;ssnss;;ZZZZZZZZVZZZZZZZZgg;;p;;ggZZZZZZVZZZZZZZZ;;ssnss;;GWWWWWWW;; uuEEEEQ ",
" QEEEEuu;;WWWWWWWG;;ppspp;;ZZZZZZZZZZZZZZZZZZZ;;s;;ZZZZZZZZZZZZZZZZZ;;ppspp;;GWWWWWWW;; uuEEEEQ ",
" QEEEEuu;;WWWWWWWG;;;;;;;rrZZZVVZZZZZZZZZZZZrr;;s;;ZZZZZZZZZZZZZZZZZrr;;;;;;;GWWWWWWW;; uuEEEEQ ",
" QEEEEuu;;WWWWWWWG;;;;;;;rrZZZZZZZZZZVZZZZZZrr;;s;;ZZZZZZZZZZZZZZZZZrr;;;;;;;GWWWWWWW;; uuEEEEQ ",
" EEEEEuu;;HWWWWHHG;;;;;;;;;;;;;;;;;;;;;;;;;;;;;;s;;;;;;;;;;;;;;;;;;;;;;;;;;;;GHHWWWWH;; uuEEEEE ",
" EEEEEuu;;;;;;;;;;;;22rrrrrrrrrrrrrrrrrrrr22;;;;p;;rrZZZZZZZZZZZZZZZZZZZZrr;;;;;;;;;;;; uuEEEEE ",
" EEEEEuu;;;;;;;;;;;;22rrrrrrrrrrrrrrrrrrrr22;;;;p;;rrZZZZZZZZZZZZZZZZZZZZrr;;;;;;;;;;;; uuEEEEE ",
" EEEEiuu;;HWWWWHHG;;rrrrrrrrrrrrrrrrrrrrrrrr;;;;s;;ZZZZZZZZZZZZZZZZZZZZZZZZ;;GHHWWWWH;; uuiEEEE ",
" EEEEiuu;;WWWWWWWG;;22rrrrrrrrrrrrrrrrrrrr22;;;;p;;ZZZZZZZZZZZZZZZZZZZZZZZZ;;GWWWWWWW;; uuiEEEE ",
" EEEEiuu;;WWWWWWWG;;22rrrrrrrrrrrrrrrrrrrr22;;;;p;;ZZZZZZZZZZZZZZZZZZZZZZZZ;;GWWWWWWW;; uuiEEEE ",
" EEEEiuu;;!WWWWWWG;;;;;;;;;;;;;;;;;;;;;;;;;;;;;;s;;rrZZZZZZZZZZZZZZZZZZZZrr;;GWWWWWW!;; uuiEEEE ",
" iEEiuuu;;!WWWWWWG;;;;;;;;;;;;;;;;;;;;;;;;;;;;;;p;;;;;;;;;;;;;;;;;;;;;;;;;;;;GWWWWWW!;; uuuiEEi ",
" iEEiuuu;;!WWWWWWG;;;;;;;;;;;;;;;;;;;;;;;;;;;;;;p;;;;;;;;;;;;;;;;;;;;;;;;;;;;GWWWWWW!;; uuuiEEi ",
" iEEiuuu;;WWWWWWWG;;rrZZZZZZZZZZZZZZZZZZZZZZrr;;p;;;;;;;;;;;;;;;;;;;;;;;;;;;;GWWWWWWW;; uuuiEEi ",
" uuuuuut;;HWWWWHHG;;ZZZZZZZZZZZZZZZZZZZZZZZZZZ;;p;;;;rrrrrrrrrrrrrrrrrrrr;;;;GHHWWWWH;; tuuuuuu ",
" uuuuuut;;HWWWWHHG;;ZZZZZZZZZZZZZZZZZZZZZZZZZZ;;p;;;;rrrrrrrrrrrrrrrrrrrr;;;;GHHWWWWH;; tuuuuuu ",
" uuuuuut;;GGGGGGGy;;rrZZZZZZZZZZZZZZZZZZZZZZrr;;p;;;;2rrrrrrrrrrrrrrrrrr2;;;;yGGGGGGG;; tuuuuuu ",
" uuuuuut;;;;;;;;;;;;;;;;;;;;;;;;;;;;;;;;;;;;;;;;;;;;;;;;;;;;;;;;;;;;;;;;;;;;;;;;;;;;;;; tuuuuuu ",
"        ;;;;;;;;;;;;;;;;;;;;;;;;;;;;;;;;;;;;;;;;;;;;;;;;;;;;;;;;;;;;;;;;;;;;;;;;;;;;;;;         ",
"        ;;;;;;;;;;;;;;;;;;;;;;;;;;;;;;;;;;;;;;;;;;;;;;;;;;;;;;;;;;;;;;;;;;;;;;;;;;;;;;;         "
};
