/* XPM */
static char *test[] = {
/* columns rows colors chars-per-pixel */
"96 96 92 1 ",
"  c #3F3851",
". c #584B57",
"X c #76575C",
"o c #7A565A",
"O c #7D545A",
"+ c #7B535C",
"@ c #7E535D",
"# c #7A545F",
"$ c #7C545D",
"% c #6F5966",
"& c #6E5968",
"* c #735763",
"= c #775563",
"- c #725766",
"; c #795563",
": c #725861",
"> c #725865",
", c #89365C",
"< c #9E3B57",
"1 c #80525C",
"2 c #AE444E",
"3 c #BF5753",
"4 c #8F6674",
"5 c #896976",
"6 c #896978",
"7 c #966470",
"8 c #936474",
"9 c #986270",
"0 c #9F767E",
"q c #AB6F77",
"w c #AC6F77",
"e c #AD6F7A",
"r c #AD6F7C",
"t c #A47377",
"y c #A57477",
"u c #A97277",
"i c #A6737A",
"p c #A07678",
"a c #A57478",
"s c #A0757E",
"d c #AA7178",
"f c #AD7078",
"g c #AA707E",
"h c #AC707C",
"j c #D25654",
"k c #CD7363",
"l c #E27F6D",
"z c #EDA27F",
"x c #9F7782",
"c c #997881",
"v c #A27481",
"b c #B67F82",
"n c #B77E84",
"m c #B97D85",
"M c #AC838B",
"N c #B58183",
"B c #BF9692",
"V c #BB9797",
"C c #BF9694",
"Z c #BA9897",
"A c #BB9799",
"S c #BD9699",
"D c #B89899",
"F c #BC989A",
"G c #C3938F",
"H c #C4938F",
"J c #C2958F",
"K c #C4958F",
"L c #C59392",
"P c #C29590",
"I c #C49490",
"U c #C69294",
"Y c #C29496",
"T c #CDAFAD",
"R c #D4AFA7",
"E c #D2AFA9",
"W c #D4AFA9",
"Q c #D6AEAC",
"! c #CEB0AE",
"~ c #D2B0A7",
"^ c #D5B0AA",
"/ c #D3B0AC",
"( c #CFAFB0",
") c #CEB0B0",
"_ c #FBCA97",
"` c #FFEAB7",
"' c #DFC7C5",
"] c #DDC8C5",
"[ c #E3C6C0",
"{ c #E4C5C0",
"} c #E0C6C5",
"| c #FFFAD6",
/* pixels */
"ayYYYPYBR~WWEWWBYPWWCYYPPPYYYYYYYYYYYYYYPPYYYp0$pyYYYPYBR~WWEWWBYPWWCYYPPPYYYYYYYYYYYYYYPPYYYp0#",
"IIIIIIIIIGKKIIPPIIIIIIIIIIIIIIudUtudddduuLICX::XCIIIIIIIIGKKIIPPIIIIIIIIIIIIIIudUtudddduuLICX:::",
"ULIIIIJJIIIIIIIIIIIIIIIJPPPPIIIIIIIIKIJJIIPIIYSOULIIIIJJIIIIIIIIIIIIIIIJPPPPIIIIIIIIKIJJIIPIIYS#",
"EEWWWCYYYYYYYYYYYYYYYp0+ptYYYPWWBWWW~~W^QCYYYYYBWEWWWCYYYYYYYYYYYYYYYp0+ptYYYPWWBWWW~~W^QCYYYYYC",
"IIIIIIIIIIUtuuUttLLYX*:XCIIIIIKKIIIIIIIIIIIIIIIIIIIIIIIIIIUtuuUttLLYX*:XCIIIIIKKIIIIIIIIIIIIIIII",
"IIIIPPIIIIIIGGIIGIIHLys1iuLIIIIIIIIIIIIIIIPPKKIIIIIIPPIIIIIIGGIIGIIHLys1iuLIIIIIIIIIIIIIIIPPKKII",
"itYYYBWWBWWE{{[{{/CBWWWBYYYYYYYYYYYPYYYYYYYYYp0$stYYYBWWBWWE{{[{{/CBWWWBYYYYYYYYYYYPYYYYYYYYYp0#",
"IIIIPPIIIIIIIIIIIIPPIIIIIIIIIIIIIILLIIIIPPYYYCAoYIIIPPIIIIIIIIIIIIPPIIIIIIIIIIIIIILLIIIIPPYYYCAX",
"quLIIIIIIIIIIIKKIIIIIIIIIIIIIIIIIIIIPPIIPPYYUp0@iuLIIIIIIIIIIIIIIIIIIIIIIIIIIIIIIILIPPIPPPPPUp0#",
"AASSAASSAASSAVSCFASSS0cX00SSAZ(!D!)T!)}']')T!DASAAAAAAAAAASCVVSSFVSSS0cX00SSAZ((D()T))}']')T!DAS",
"IIKKILuddduULIyUICX::::XCIIIIIIILbmfeeeeeeeeeefeeeeewfeerreeefnULIIIIPSOYIIIIIIIIIPPPPIIIIIIIIII",
"IIIIIIIIIIPIIIIIIIIILys1iuIIILNnfweeeeehg7;->>::>>>>>=89heeeeeeefbLILys1iuLIIIIIIIIIIIIIIIIIIIII",
"s0SSAVSV!!!T!!!VVZ!!FSSSAASSASMMsssssx6-%%%%%%%%%%%%%%&%>54vvssssMSSAFSSAASSAASSAAAAADAAVVSSS0c=",
".                                                                                              .",
".                                                                                              .",
".                                                                                              .",
" z_`|``_z lz__`|``_`|`_`__zl lz_`|`__`||`__zl lz__``|`__zl lz__`|`_`__zl lz__`||```_zl z_``|`_z ",
" z_`|``_z lz__`|``_`|`_`__zl lz_`|`__`||`__zl lz__``|`__zl lz__`|`_`__zl lz__`||```_zl z_``|`_z ",
" z_`|``_z lz__`|``_`|`_`__zl lz_`|`__`||`__zl lz__``|`__zl lz__`|`_`__zl lz__`||```_zl z_``|`_z ",
" z_`|``_z lz__`|``_`|`_`__zl lz_`|`__`||`__zl lz__``|`__zl lz__`|`_`__zl lz__`||```_zl z_``|`_z ",
" ________ l________________l l______________l l__________l l___________l l___________l ________ ",
" ________ l________________l l______________l l__________l l___________l l___________l ________ ",
" ________ l________________l l______________l l__________l l___________l l___________l ________ ",
" ________ l________________l l______________l l__________l l___________l l___________l ________ ",
" ________ l________________l l______________l l__________l l___________l l___________l ________ ",
" ________ l________________l l______________l l__________l l___________l l___________l ________ ",
" ________ l________________l l______________l l__________l l___________l l___________l ________ ",
" ________ lz______________zl lz____________zl lz________zl lz_________zl lz_________zl ________ ",
" ________ lz______________zl lz____________zl lz________zl lz_________zl lz_________zl ________ ",
" ________ lz______________zl lz____________zl lz________zl lz_________zl lz_________zl ________ ",
" z______z llz____________zll llz__________zll llz______zll llz_______zll llz_______zll z______z ",
" z______z llz____________zll llz__________zll llz______zll llz_______zll llz_______zll z______z ",
" z______z llz____________zll llz__________zll llz______zll llz_______zll llz_______zll z______z ",
" z______z llz____________zll llz__________zll llz______zll llz_______zll llz_______zll z______z ",
" lz____zl llllllllllllllllll llllllllllllllll llllllllllll lllllllllllll lllllllllllll lz____zl ",
" lz____zl llllllllllllllllll llllllllllllllll llllllllllll lllllllllllll lllllllllllll lz____zl ",
" lz____zl llllllllllllllllll llllllllllllllll llllllllllll lllllllllllll lllllllllllll lz____zl ",
" llllllll jllllllllllllllllj jllllllllllllllj jllllllllllj jlllllllllllj jlllllllllllj llllllll ",
" llllllll jllllllllllllllllj jllllllllllllllj jllllllllllj jlllllllllllj jlllllllllllj llllllll ",
" llllllll jllllllllllllllllj jllllllllllllllj jllllllllllj jlllllllllllj jlllllllllllj llllllll ",
" jllllllj                                                                              jllllllj ",
" jllllllj                                                                              jllllllj ",
" jllllllj                                                                              jllllllj ",
" jllllllj                                                                              jllllllj ",
"                                                                                                ",
"                                                                                                ",
"                                                                                                ",
" llllllj         ,<222<, ,<222<, ,<222<,         ,<222<,         ,<222<, ,<222<,        jllllll ",
" llllllj         ,<222<, ,<222<, ,<222<,         ,<222<,         ,<222<, ,<222<,        jllllll ",
" llllllj         ,<222<, ,<222<, ,<222<,         ,<222<,         ,<222<, ,<222<,        jllllll ",
" llllllj         ,<222<, ,<222<, ,<222<,         ,<222<,         ,<222<, ,<222<,        jllllll ",
" z__zlll  ,2222, <22222< <22222< <22222< ,22222, <22222< ,22222, <22222< <22222< ,222,  lllz__z ",
" z__zlll  ,2222, <22222< <22222< <22222< ,22222, <22222< ,22222, <22222< <22222< ,222,  lllz__z ",
" z__zlll  ,2222, <22222< <22222< <22222< ,22222, <22222< ,22222, <22222< <22222< ,222,  lllz__z ",
" z__zlll  ,2222, <22222< <22222< <22222< ,22222, <22222< ,22222, <22222< <22222< ,222,  lllz__z ",
" z__zlll  ,2222, <22222< <22222< <22222< ,22222, <22222< ,22222, <22222< <22222< ,222,  lllz__z ",
" ____zll                                                                                llz____ ",
" ____zll                                                                                llz____ ",
" ____zll                                                                                llz____ ",
" _____ll    ,222222, ,2222, ,222222, ,2222, ,222222, ,2222, ,222222, ,2222, ,222222,    ll____` ",
" _____ll    ,222222, ,2222, ,222222, ,2222, ,222222, ,2222, ,222222, ,2222, ,222222,    ll____` ",
" _____ll    ,222222, ,2222, ,222222, ,2222, ,222222, ,2222, ,222222, ,2222, ,222222,    ll____` ",
" _____ll    ,222222, ,2222, ,222222, ,2222, ,222222, ,2222, ,222222, ,2222, ,222222,    ll____` ",
" `____ll    223kkkk3 3kkkk3 3kkkkkk3 3kkkk3 3kkkkkk3 3kkkk3 3kkkkkk3 3kkkk3 3kkkk322    ll____` ",
" `____ll    223kkkk3 3kkkk3 3kkkkkk3 3kkkk3 3kkkkkk3 3kkkk3 3kkkkkk3 3kkkk3 3kkkk322    ll____` ",
" `____ll    223kkkk3 3kkkk3 3kkkkkk3 3kkkk3 3kkkkkk3 3kkkk3 3kkkkkk3 3kkkk3 3kkkk322    ll____` ",
" `____ll    ,2kkkkk2 2kkkk2 2kkkkkk2 2kkkk2 2kkkkkk2 2kkkk2 2kkkkkk2 2kkkk2 2kkkkk2,    ll_____ ",
" `____ll    ,2kkkkk2 2kkkk2 2kkkkkk2 2kkkk2 2kkkkkk2 2kkkk2 2kkkkkk2 2kkkk2 2kkkkk2,    ll_____ ",
" `____ll    ,2kkkkk2 2kkkk2 2kkkkkk2 2kkkk2 2kkkkkk2 2kkkk2 2kkkkkk2 2kkkk2 2kkkkk2,    ll_____ ",
" `____ll    ,2kkkkk2 2kkkk2 2kkkkkk2 2kkkk2 2kkkkkk2 2kkkk2 2kkkkkk2 2kkkk2 2kkkkk2,    ll_____ ",
" |____ll                                                                                ll____` ",
" |____ll                                                                                ll____` ",
" |____ll                                                                                ll____` ",
" |____ll  ,22232 2kkkkk2 2kkkkk2 2kkkkk2 2kkkkk2 2kkkkk2 2kkkkk2 2kkkkk2 2kkkkk2 3222,  ll____| ",
" |____ll  ,22232 2kkkkk2 2kkkkk2 2kkkkk2 2kkkkk2 2kkkkk2 2kkkkk2 2kkkkk2 2kkkkk2 3222,  ll____| ",
" |____ll  ,22232 2kkkkk2 2kkkkk2 2kkkkk2 2kkkkk2 2kkkkk2 2kkkkk2 2kkkkk2 2kkkkk2 3222,  ll____| ",
" `____ll  2222kk kkkkkkk kkkkkkk kkkkkkk kkkkkkk kkkkkkk kkkkkkk kkkkkkk kkkkkkk k2222  ll____` ",
" `____ll  2222kk kkkkkkk kkkkkkk kkkkkkk kkkkkkk kkkkkkk kkkkkkk kkkkkkk kkkkkkk k2222  ll____` ",
" `____ll  2222kk kkkkkkk kkkkkkk kkkkkkk kkkkkkk kkkkkkk kkkkkkk kkkkkkk kkkkkkk k2222  ll____` ",
" `____ll  2222kk kkkkkkk kkkkkkk kkkkkkk kkkkkkk kkkkkkk kkkkkkk kkkkkkk kkkkkkk k2222  ll____` ",
" _____ll  ,22232 2kkkkk2 2kkkkk2 2kkkkk2 2kkkkk2 2kkkkk2 2kkkkk2 2kkkkk2 2kkkkk2 3222,  ll_____ ",
" _____ll  ,22232 2kkkkk2 2kkkkk2 2kkkkk2 2kkkkk2 2kkkkk2 2kkkkk2 2kkkkk2 2kkkkk2 3222,  ll_____ ",
" _____ll  ,22232 2kkkkk2 2kkkkk2 2kkkkk2 2kkkkk2 2kkkkk2 2kkkkk2 2kkkkk2 2kkkkk2 3222,  ll_____ ",
" ____zll                                                                                llz____ ",
" ____zll                                                                                llz____ ",
" ____zll                                                                                llz____ ",
" ____zll                                                                                llz____ ",
" z__zlll    ,3kkkkk2 3kkkk3 2kkkkkk2 3kkkk3 2kkkkkk2 3kkkk3 2kkkkkk2 3kkkk3 2kkkkk3,    lllz__z ",
" z__zlll    ,3kkkkk2 3kkkk3 2kkkkkk2 3kkkk3 2kkkkkk2 3kkkk3 2kkkkkk2 3kkkk3 2kkkkk3,    lllz__z ",
" z__zlll    ,3kkkkk2 3kkkk3 2kkkkkk2 3kkkk3 2kkkkkk2 3kkkk3 2kkkkkk2 3kkkk3 2kkkkk3,    lllz__z ",
" llllllj    2kkkkkkk 23kk32 kkkkkkkk 23kk32 kkkkkkkk 23kk32 kkkkkkkk 23kk32 kkkkkkk2    jllllll ",
" llllllj    2kkkkkkk 23kk32 kkkkkkkk 23kk32 kkkkkkkk 23kk32 kkkkkkkk 23kk32 kkkkkkk2    jllllll ",
" llllllj    2kkkkkkk 23kk32 kkkkkkkk 23kk32 kkkkkkkk 23kk32 kkkkkkkk 23kk32 kkkkkkk2    jllllll ",
" llllllj    2kkkkkkk 23kk32 kkkkkkkk 23kk32 kkkkkkkk 23kk32 kkkkkkkk 23kk32 kkkkkkk2    jllllll ",
"            ,3kkkkk2        2kkkkkk2        2kkkkkk2        2kkkkkk2        2kkkkk3,            ",
"            ,3kkkkk2        2kkkkkk2        2kkkkkk2        2kkkkkk2        2kkkkk3,            "
};
